<?xml version="1.0" encoding="UTF-8" standalone="no"?>
<svg
   version="1.0"
   width="600.000000pt"
   height="190.000000pt"
   viewBox="0 0 600.000000 190.000000"
   preserveAspectRatio="xMidYMid meet"
   
   id="svg27"
   sodipodi:docname="Shambhala.svg"
   xml:space="preserve"
   inkscape:version="1.4.3 (0d15f75, 2025-12-25)"
   xmlns:inkscape="http://www.inkscape.org/namespaces/inkscape"
   xmlns:sodipodi="http://sodipodi.sourceforge.net/DTD/sodipodi-0.dtd"
   xmlns:xlink="http://www.w3.org/1999/xlink"
   xmlns="http://www.w3.org/2000/svg"
   xmlns:svg="http://www.w3.org/2000/svg"><defs
     id="defs27" /><sodipodi:namedview
     id="namedview27"
     pagecolor="#ffffff"
     bordercolor="#000000"
     borderopacity="0.25"
     inkscape:showpageshadow="2"
     inkscape:pageopacity="0.0"
     inkscape:pagecheckerboard="0"
     inkscape:deskcolor="#d1d1d1"
     inkscape:document-units="pt"
     inkscape:zoom="2.22"
     inkscape:cx="825.9009"
     inkscape:cy="145.4955"
     inkscape:window-width="1580"
     inkscape:window-height="714"
     inkscape:window-x="2298"
     inkscape:window-y="78"
     inkscape:window-maximized="0"
     inkscape:current-layer="g27" /><g
     transform="translate(0.000000,190.000000) scale(0.066667,-0.066667)"
     fill="#000000"
     stroke="none"
     class=""
     id="g27"><path
       d="M4305 2821 c-139 -18 -216 -41 -247 -75 -27 -31 -27 -49 5 -173 35 -141 99 -981 83 -1101 -14 -107 2 -115 240 -114 276 0 392 66 494 281 137 289 111 540 -60 588 -33 10 -33 10 11 79 78 124 54 341 -48 435 -84 77 -262 107 -478 80z m323 -207 c82 -111 -28 -334 -165 -334 -43 0 -33 342 11 360 47 20 131 6 154 -26z m76 -582 c71 -109 -100 -472 -222 -472 l-43 0 4 229 5 229 52 26 c81 40 174 35 204 -12z"
       id="path1" /><path
       d="M5598 2824 c-43 -8 -55 -37 -33 -79 9 -17 21 -132 26 -255 l8 -223 -43 -10 c-24 -6 -67 -16 -96 -23 -112 -29 -105 -46 -105 270 0 333 17 306 -195 313 -199 7 -231 -9 -191 -93 92 -194 74 -967 -28 -1224 -46 -114 -11 -126 223 -74 174 39 157 7 170 318 10 257 11 266 42 266 17 0 68 10 113 22 45 12 85 19 89 15 8 -8 -22 -231 -53 -394 -29 -147 -28 -148 75 -125 199 45 190 39 190 129 0 44 6 146 14 228 8 81 18 185 22 230 4 45 12 222 18 391 l10 309 -71 10 c-76 11 -128 10 -185 -1z"
       id="path2" /><path
       d="M6174 2801 c-32 -28 -45 -66 -77 -228 -41 -209 -168 -715 -221 -882 -45 -141 -33 -147 141 -78 207 82 212 85 200 166 -11 72 3 274 21 303 6 10 44 19 84 22 l73 4 21 -143 c32 -220 74 -262 261 -262 147 0 145 -6 82 162 -57 153 -96 338 -144 684 -33 243 -39 255 -145 272 -147 24 -255 17 -296 -20z m201 -317 c0 -69 4 -146 9 -170 9 -43 6 -46 -49 -53 -82 -10 -85 0 -50 141 61 246 90 272 90 82z"
       id="path3" /><path
       d="M6768 2810 c-54 -11 -54 -35 -5 -241 53 -227 88 -449 101 -660 13 -191 -11 -176 326 -206 325 -30 308 -36 320 109 13 147 -2 163 -100 113 -110 -57 -202 -42 -207 34 -2 29 -20 122 -40 206 -44 191 -83 434 -83 525 0 103 -141 157 -312 120z"
       id="path4" /><path
       d="M3593 2747 c-71 -33 -115 -73 -153 -137 -34 -58 -36 -58 -78 23 -95 177 -298 167 -422 -21 l-52 -80 -5 85 c-5 95 -27 113 -135 113 -144 0 -226 -52 -191 -120 80 -154 221 -741 217 -900 -4 -150 -6 -145 72 -170 95 -30 220 -55 277 -55 l46 0 -8 101 c-5 56 -37 209 -71 341 -34 133 -66 295 -71 364 l-8 124 43 0 c109 -2 239 -419 238 -769 l0 -176 45 -14 c80 -25 213 -45 246 -36 43 11 42 85 -6 500 -51 449 -47 555 21 555 72 0 102 -165 120 -648 14 -368 25 -425 91 -484 42 -37 200 -49 256 -19 41 22 41 27 9 142 -12 44 -30 206 -39 360 -42 715 -47 753 -120 853 -59 82 -223 116 -322 68z"
       id="path5" /><path
       d="M7988 2745 c-165 -9 -167 -10 -188 -117 -53 -258 -141 -587 -200 -745 -84 -223 -87 -218 133 -200 213 17 203 12 192 93 -5 37 -4 117 2 178 l10 112 89 1 c85 1 89 -1 98 -39 39 -172 78 -262 125 -287 72 -39 201 -10 263 58 32 36 28 47 -83 241 -56 96 -119 276 -173 488 -59 231 -56 229 -268 217z m66 -341 c11 -64 22 -135 27 -158 7 -40 5 -41 -56 -41 l-64 0 10 64 c45 291 56 308 83 135z"
       class=""
       id="path6" /><path
       d="M1564 2701 c-88 -14 -86 -9 -81 -227 l5 -194 -116 0 -117 0 9 147 c5 81 16 164 24 185 26 68 5 78 -154 70 -175 -9 -163 3 -142 -141 21 -147 7 -484 -26 -628 -41 -180 -52 -165 129 -165 l158 0 -6 196 -5 197 38 7 c22 4 73 4 115 0 l75 -7 -1 -54 c0 -30 -12 -124 -27 -209 -29 -171 -29 -170 66 -196 177 -49 159 -92 233 568 18 155 44 314 60 359 16 46 29 88 29 94 0 14 -176 13 -266 -2z"
       class=""
       id="path7" /><path
       d="M2075 2700 c-156 -33 -232 -201 -274 -607 -9 -83 -26 -191 -38 -240 -46 -188 -35 -200 198 -214 l139 -8 0 41 c0 23 -12 98 -26 167 -31 153 -25 163 91 148 83 -10 84 -11 109 -80 89 -244 156 -332 255 -332 132 0 247 116 182 183 -100 103 -229 474 -266 770 -20 158 -36 173 -189 180 -65 3 -147 0 -181 -8z m113 -399 c22 -201 27 -187 -56 -175 l-66 8 9 69 c10 86 67 272 83 272 6 0 20 -78 30 -174z"
       class=""
       id="path8" /><path
       d="M411 2687 c-270 -70 -296 -299 -51 -447 150 -91 210 -137 210 -163 0 -64 -198 -77 -327 -22 -99 43 -130 23 -130 -80 0 -140 98 -204 315 -205 469 -1 651 312 284 486 -143 68 -218 134 -214 188 5 63 61 52 74 -15 38 -183 373 -149 373 38 0 173 -274 286 -534 220z"
       class=""
       id="path9" /><path
       d="M221 1699 l-42 -6 7 -423 c4 -232 11 -425 16 -428 5 -3 46 10 90 28 l81 33 5 296 c5 301 13 346 65 346 45 0 54 -206 21 -469 -11 -80 -16 -149 -12 -153 8 -8 179 33 190 44 4 4 10 135 14 292 7 229 13 286 29 286 50 0 69 -279 34 -472 -20 -107 0 -141 71 -117 51 17 61 73 64 350 2 310 -97 472 -218 357 l-34 -31 -42 39 c-56 52 -108 50 -167 -8 l-48 -47 0 47 c0 50 -11 53 -124 36z"
       class=""
       id="path10" /><path
       d="M887 1682 c-15 -10 -16 -25 -3 -71 9 -32 21 -153 25 -268 14 -324 36 -374 164 -372 74 1 102 18 145 87 l28 45 -10 -64 c-10 -68 -2 -76 105 -102 l34 -9 9 342 c5 188 11 352 13 364 6 24 -81 49 -131 37 -30 -8 -32 -21 -40 -201 -8 -203 -36 -302 -88 -312 -43 -8 -56 170 -30 407 11 99 10 103 -24 116 -45 17 -170 18 -197 1z"
       id="path11" /><path
       d="M6308 1633 c-91 -21 -111 -47 -97 -123 7 -35 40 -299 74 -587 63 -540 68 -563 130 -563 158 0 222 58 235 213 6 60 31 315 57 565 55 521 58 497 -78 497 -87 0 -89 -4 -90 -192 0 -175 -37 -751 -49 -763 -13 -13 -23 104 -40 445 -24 498 -29 531 -75 523 -4 0 -34 -7 -67 -15z"
       class=""
       id="path13" /><path
       d="M6904 1616 c-44 -48 -56 -106 -108 -528 -26 -207 -56 -436 -67 -510 -25 -167 -23 -168 108 -120 127 48 125 43 111 260 -11 169 -11 170 24 184 77 29 87 20 107 -96 46 -256 111 -326 242 -258 53 28 54 44 8 154 -60 144 -120 454 -143 735 -16 207 -21 213 -150 213 -85 0 -106 -5 -132 -34z m131 -247 c0 -31 5 -112 10 -180 l9 -124 -54 0 c-63 0 -65 5 -39 165 28 179 74 264 74 139z"
       class=""
       id="path14" /><path
       d="M7278 1617 c-77 -77 108 -980 206 -1006 23 -6 338 35 430 56 44 10 53 57 27 145 -28 91 -52 103 -112 52 -73 -62 -159 -55 -188 14 -54 130 -113 408 -122 572 -8 154 -11 168 -40 176 -56 15 -183 9 -201 -9z"
       class=""
       id="path15" /><path
       d="M1590 1603 c-183 -73 -171 -246 27 -386 34 -24 48 -45 45 -67 -6 -46 -74 -51 -130 -9 -54 40 -85 31 -96 -27 -11 -54 10 -154 37 -172 167 -113 332 -96 401 41 62 126 33 191 -161 350 -63 53 -79 74 -75 104 7 56 35 56 51 0 40 -138 246 -151 246 -16 0 136 -198 241 -345 182z"
       id="path17" /><path
       d="M2012 1562 c-14 -10 -21 -72 -25 -244 -5 -205 -12 -270 -45 -440 -9 -49 27 -81 139 -127 51 -20 103 -12 86 14 -25 41 -6 540 26 688 23 106 -84 170 -181 109z"
       id="path19" /><path
       d="M5982 1541 c-87 -21 -134 -73 -121 -134 7 -27 12 -301 12 -608 l0 -559 33 0 c47 0 195 58 202 79 4 10 2 103 -3 206 -5 103 -3 365 4 582 16 478 19 469 -127 434z"
       class=""
       id="path20" /><path
       d="M2399 1478 c-179 -98 -244 -624 -104 -836 71 -106 238 -166 329 -117 66 35 122 300 63 300 -18 0 -32 -6 -32 -14 0 -64 -113 -94 -161 -42 -108 119 -88 566 26 566 57 0 83 -74 70 -197 l-10 -88 74 0 c89 0 95 7 93 121 -4 247 -177 400 -348 307z"
       id="path22" /><path
       d="M5618 1438 c-170 -31 -516 -107 -533 -118 -42 -26 -43 -248 -2 -289 8 -8 60 -1 123 17 l108 31 -9 -146 c-56 -867 -56 -834 -15 -840 35 -5 275 51 292 69 6 6 5 58 -2 116 -22 169 -21 819 1 833 10 6 54 16 97 21 118 15 131 30 129 146 -3 180 -16 191 -189 160z"
       class=""
       id="path23" /><path
       d="M3228 1397 c-15 -10 -21 -94 -25 -363 -3 -201 -15 -434 -29 -545 -13 -107 -23 -195 -20 -197 21 -16 164 -52 209 -52 l57 0 0 246 c0 210 3 247 24 255 40 15 102 10 146 -14 92 -47 148 52 104 183 l-14 43 -125 -6 -124 -6 9 49 c6 27 10 88 10 137 0 60 6 88 19 88 58 0 135 -38 186 -90 31 -33 65 -60 75 -60 42 0 48 167 7 208 -61 61 -457 157 -509 124z"
       class=""
       id="path25" /><path
       d="M4589 1300 c-152 -41 -236 -170 -219 -337 14 -140 69 -221 238 -358 204 -163 246 -231 174 -282 -63 -44 -219 -20 -307 46 -97 73 -136 40 -143 -116 -5 -136 35 -173 229 -208 367 -67 591 129 480 422 -31 83 -55 109 -304 339 -69 64 -107 166 -85 229 21 60 73 63 73 4 0 -176 145 -256 277 -152 48 38 48 55 -6 199 -80 213 -192 272 -407 214z"
       class=""
       id="path26" /><path
       d="M3814 1020 c-4 -195 -30 -476 -74 -775 -10 -73 -7 -75 258 -124 260 -49 247 -56 247 150 0 149 -4 153 -87 97 -55 -38 -143 -51 -160 -24 -9 15 16 255 28 267 15 15 103 -16 143 -50 58 -48 64 -35 73 148 l7 149 -36 -23 c-19 -12 -62 -25 -95 -28 l-60 -4 3 90 c2 49 7 112 12 140 l9 50 85 -10 c47 -6 95 -18 106 -28 33 -27 56 22 55 120 l0 87 -255 0 -255 1 -4 -233z"
       class=""
       id="path27" /><g
       id="g1"
       transform="matrix(0.66527849,0,0,-0.66527849,7970.9563,1610.9418)"><path
         style="fill:#000000"
         d="m 705.5,1445.3122 c -1.65,-0.1033 -12.675,-0.6965 -24.5,-1.3181 -18.58018,-0.9768 -55.43107,-5.0065 -73,-7.9827 -3.025,-0.5124 -8.425,-1.4358 -12,-2.052 -3.575,-0.6161 -8.75,-1.489 -11.5,-1.9396 -2.75,-0.4506 -8.825,-1.7636 -13.5,-2.9176 -4.675,-1.1541 -10.525,-2.5052 -13,-3.0023 -2.475,-0.4972 -10.35,-2.4977 -17.5,-4.4455 -7.15,-1.9479 -15.025,-4.0769 -17.5,-4.7311 -2.475,-0.6543 -5.4,-1.5648 -6.5,-2.0234 -4.39969,-1.8341 -20.86911,-6.8999 -22.43242,-6.8999 -0.91717,0 -2.09508,-0.3837 -2.61758,-0.8526 -0.5225,-0.4689 -3.2,-1.4319 -5.95,-2.1399 -2.75,-0.708 -6.35,-1.8365 -8,-2.5077 -1.65,-0.6712 -5.925,-2.3541 -9.5,-3.7398 -20.34765,-7.8869 -32.01002,-12.9447 -59.14297,-25.6495 -3.65363,-1.7108 -7.10363,-3.1105 -7.66666,-3.1105 -0.56304,0 -1.1737,-0.3842 -1.35704,-0.8537 -0.18333,-0.4696 -3.70833,-2.4991 -7.83333,-4.5102 -8.10839,-3.953 -13.90845,-7.0723 -15.50521,-8.3388 -0.55286,-0.4385 -4.82786,-2.7704 -9.5,-5.182 -4.67213,-2.4116 -8.9944,-4.9991 -9.60503,-5.75 -0.61064,-0.7509 -1.61445,-1.3653 -2.23071,-1.3653 -0.61625,0 -4.46975,-2.25 -8.56334,-5 -4.09358,-2.75 -7.73368,-5 -8.08911,-5 -0.96126,0 -9.95327,-6.2543 -10.33993,-7.1918 -0.18334,-0.4445 -0.79308,-0.8082 -1.35498,-0.8082 -0.5619,0 -3.02196,-1.35 -5.4668,-3 -2.44483,-1.65 -4.64245,-3 -4.88359,-3 -0.41993,0 -1.33287,-0.7194 -7.29532,-5.7488 -1.46629,-1.2368 -3.22848,-2.2493 -3.91598,-2.25 -0.6875,-7e-4 -1.25,-0.3542 -1.25,-0.7856 0,-0.4314 -1.33363,-1.5722 -2.96361,-2.535 -1.62999,-0.9629 -3.54249,-2.3122 -4.25,-2.9986 -0.70752,-0.6863 -2.86139,-2.3274 -4.78639,-3.6468 -1.925,-1.3194 -5.38288,-4.0046 -7.68418,-5.9671 -6.27526,-5.3513 -10.01874,-8.0681 -11.11699,-8.0681 -0.54167,0 -1.2365,-0.6558 -1.54407,-1.4573 -0.30757,-0.8015 -2.26822,-2.541 -4.35699,-3.8656 -2.08877,-1.3245 -5.97565,-4.5016 -8.6375,-7.0602 -2.66186,-2.5586 -6.48686,-5.8816 -8.5,-7.3845 -2.01315,-1.5028 -6.36027,-5.2921 -9.66027,-8.4206 -12.2644,-11.6271 -18.02048,-16.7838 -18.75,-16.7976 -0.4125,-0.01 -0.75,-0.6892 -0.75,-1.5142 0,-0.825 -0.4405,-1.5 -0.97889,-1.5 C 219.1156,1240 208,1229.2645 208,1228.39 c 0,-0.612 -3.93415,-4.39 -4.57143,-4.39 -0.74225,0 -3.42857,-2.6863 -3.42857,-3.4286 0,-0.3143 -2.5875,-3.1799 -5.75,-6.3681 -6.40151,-6.4535 -16.2833,-17.6396 -17.61284,-19.9376 -0.47456,-0.8203 -1.59956,-2.2583 -2.5,-3.1957 -2.33232,-2.4281 -12.07055,-13.3775 -12.95833,-14.57 -7.33939,-9.8588 -12.97561,-17.0335 -15.42883,-19.6404 -0.9625,-1.0228 -1.75,-2.4971 -1.75,-3.2763 0,-0.7791 -0.35416,-1.5666 -0.78702,-1.75 -0.43287,-0.1833 -2.34537,-2.3472 -4.25,-4.8086 -1.90464,-2.4614 -3.996,-5.0516 -4.64747,-5.7559 -0.65147,-0.7044 -1.4693,-2.178 -1.81739,-3.2747 -0.34809,-1.0968 -1.05257,-1.9941 -1.56551,-1.9941 -0.51293,0 -0.93865,-0.5625 -0.94602,-1.25 -0.0131,-1.225 -1.72885,-3.6502 -7.23659,-10.2292 -1.5125,-1.8066 -2.75,-3.5738 -2.75,-3.9269 0,-0.3532 -1.62399,-2.9938 -3.60886,-5.868 -1.98488,-2.8742 -4.0292,-6.1259 -4.54294,-7.2259 -1.2556,-2.6884 -2.75927,-5.1417 -6.43579,-10.5 -1.69818,-2.475 -4.14044,-6.6375 -5.427257,-9.25 C 98.698338,1085.1375 97.275254,1083 96.822745,1083 96.370235,1083 96,1082.6096 96,1082.1324 c 0,-1.2025 -8.308171,-15.5553 -9.241782,-15.9657 -0.41702,-0.1834 -0.7599,-1.0834 -0.761956,-2 -0.0021,-0.9167 -0.902056,-3.1401 -2,-4.9409 C 82.898318,1057.425 82,1055.325 82,1054.5592 c 0,-0.7659 -0.366117,-1.5425 -0.813594,-1.7259 C 80.233201,1052.4428 74,1041.0747 74,1039.7268 c 0,-0.5049 -0.840962,-2.1125 -1.868804,-3.5724 -1.027842,-1.4599 -2.208825,-3.7794 -2.624407,-5.1544 -0.415581,-1.375 -2.683332,-6.55 -5.039446,-11.5 -2.356114,-4.95 -4.865531,-10.6875 -5.576482,-12.75 -0.710951,-2.0625 -1.581009,-3.75 -1.933462,-3.75 -0.352453,0 -1.190975,-1.9125 -1.863383,-4.25 -0.672407,-2.3375 -2.093636,-6.1576 -3.158287,-8.4891 C 50.871078,987.92939 50,985.43189 50,984.7109 c 0,-0.721 -0.377876,-1.7384 -0.839724,-2.2609 -0.882743,-0.99867 -1.106011,-1.57426 -6.186858,-15.95 -1.749489,-4.95 -3.520834,-9.9 -3.936323,-11 -0.415489,-1.1 -2.194863,-6.5 -3.954165,-12 -1.759302,-5.5 -3.58878,-10.9 -4.065506,-12 -0.476726,-1.1 -1.08187,-3.125 -1.344764,-4.5 -0.748679,-3.91577 -5.591229,-22.05923 -6.113026,-22.90351 C 22.636122,902.60222 13.940692,863.08376 11.436497,849 8.5703786,832.88076 8.083,829.42303 5.5869309,807.5 1.179866,768.79266 0.68485548,760.34708 0.66592574,723.54069 0.64711281,686.96145 2.5895763,654.92116 6.6097068,625.5 c 0.4477327,-3.27671 0.6152592,-4.34043 3.4648322,-22 2.467868,-15.29404 7.854482,-41.00757 10.997998,-52.5 0.676984,-2.475 1.308124,-5.175 1.402532,-6 0.225301,-1.96881 1.427132,-5.99563 2.536886,-8.5 0.487439,-1.1 1.996751,-6.5 3.354026,-12 2.577255,-10.44365 3.236045,-12.68728 4.698015,-16 0.485453,-1.1 2.449662,-7.175 4.364911,-13.5 4.938452,-16.30896 8.541242,-26.38191 12.720786,-35.56572 1.017669,-2.23615 1.864528,-4.48615 1.881908,-5 0.05446,-1.6102 4.313819,-5.859 8.121195,-8.10108 6.069488,-3.57418 13.453575,-4.60691 24.048494,-3.36338 5.114291,0.60026 14.658269,1.522 21.20884,2.0483 6.55057,0.5263 16.90057,1.63974 23,2.4743 6.09943,0.83456 14.91487,1.95118 19.58987,2.48138 9.21774,1.04539 32.45519,4.45338 40.5,5.93971 2.75,0.50808 10.4,1.86634 17,3.01837 6.6,1.15202 13.35,2.50563 15,3.00802 1.65,0.50239 6.825,1.66346 11.5,2.58015 22.68578,4.44831 40.5461,9.0325 70,17.96683 4.125,1.25125 10.2,3.06883 13.5,4.03908 7.83244,2.30285 15.04864,4.71661 25.5,8.52953 4.675,1.70556 11.2,3.97068 14.5,5.0336 3.3,1.06292 6.9,2.31534 8,2.78314 1.1,0.4678 3.59607,1.53705 5.54683,2.3761 1.95076,0.83905 6.67576,2.73894 10.5,4.22198 3.82424,1.48304 9.65317,3.94219 12.95317,5.46477 3.3,1.52259 7.79843,3.39757 9.99651,4.16663 2.19808,0.76906 7.2848,3.08579 11.30381,5.14829 4.01902,2.0625 7.95809,3.75 8.75349,3.75 0.79541,0 1.44619,0.45 1.44619,1 0,0.55 0.4628,1 1.02845,1 1.81974,0 21.68954,9.44958 22.97155,10.92469 0.99945,1.14999 5.00815,3.07531 6.4031,3.07531 0.78663,0 1.58023,0.34795 1.76357,0.77321 0.18333,0.42527 4.15833,2.73353 8.83333,5.12947 4.675,2.39594 10.38108,5.648 12.68018,7.22679 2.29909,1.57879 4.50662,2.87053 4.9056,2.87053 0.39899,0 2.20039,1.125 4.00311,2.5 1.80272,1.375 3.70259,2.5 4.22194,2.5 0.51936,0 1.50448,0.675 2.18917,1.5 0.68469,0.825 2.03469,1.5 3,1.5 0.96531,0 2.30756,0.66566 2.98278,1.47925 0.67522,0.81359 2.59753,2.16263 4.2718,2.99786 1.67427,0.83524 4.88942,2.87882 7.14478,4.54129 2.25535,1.66247 8.2972,5.7275 13.42633,9.03341 5.12913,3.30591 9.85413,6.46274 10.5,7.01517 0.64587,0.55243 6.34931,4.71698 12.67431,9.25455 10.0932,7.24088 13.99714,10.25191 18.38302,14.17847 0.61434,0.55 2.72033,2.19622 4.67998,3.65826 1.95965,1.46204 5.55965,4.48751 8,6.72327 2.44035,2.23575 4.74451,4.07703 5.12035,4.09174 0.37583,0.0147 2.8813,2.16423 5.56769,4.77673 2.68639,2.6125 6.36599,5.875 8.17688,7.25 4.84875,3.68163 37.53359,36.30164 45.07316,44.98376 3.57441,4.11608 8.18157,9.29108 10.23814,11.5 2.05657,2.20893 3.74407,4.3191 3.75,4.68926 0.006,0.37017 1.81078,2.43747 4.01078,4.59401 2.2,2.15654 4,4.40368 4,4.99364 0,0.58997 0.36612,1.22266 0.8136,1.406 0.8806,0.36078 9.68611,11.69216 12.38917,15.94302 0.91271,1.43533 2.26777,3.23533 3.01126,4 0.74349,0.76467 2.4403,2.96531 3.7707,4.89031 1.3304,1.925 2.68727,3.725 3.01527,4 0.328,0.275 1.69327,2.075 3.03393,4 2.69059,3.86329 4.34746,5.93148 7.71607,9.63161 1.2375,1.35929 2.25,2.82083 2.25,3.24787 0,0.63486 6.58966,7.3965 13.58511,13.93967 3.27674,3.06489 13.65685,4.20188 17.62754,1.93085 C 735.95158,774.03957 742,769.08364 742,767.91111 c 0,-0.50111 0.7875,-1.72494 1.75,-2.71963 4.84245,-5.00438 13.92676,-15.74877 15.25,-18.0368 0.825,-1.42651 2.7375,-3.7201 4.25,-5.09685 1.5125,-1.37676 2.75,-3.09681 2.75,-3.82233 0,-0.72552 0.94705,-2.31281 2.10455,-3.52731 1.1575,-1.21451 2.82646,-3.33319 3.70879,-4.70819 5.20373,-8.10932 14.38312,-19.75901 21.68666,-27.52283 4.57439,-4.86268 6.5,-7.19061 6.5,-7.85804 0,-0.25591 1.2375,-1.77821 2.75,-3.38291 1.5125,-1.60469 5.27723,-5.61803 8.36607,-8.91854 3.08884,-3.3005 6.35134,-6.28306 7.25,-6.62791 C 819.26473,675.34492 820,674.47315 820,673.7525 820,672.10319 832.12467,660 833.77691,660 834.44961,660 835,659.58022 835,659.06716 835,658.04297 853.52535,640 854.57692,640 c 0.2327,0 1.23747,-0.7875 2.23284,-1.75 0.99537,-0.9625 4.25787,-3.83642 7.25,-6.38649 2.99213,-2.55007 7.46524,-6.491 9.94024,-8.75763 2.475,-2.26662 5.37145,-4.39967 6.43655,-4.7401 1.0651,-0.34044 3.36823,-2.137 5.11807,-3.99238 1.74985,-1.85537 3.66854,-3.3734 4.26377,-3.3734 0.59523,0 1.44209,-0.57463 1.88192,-1.27696 1.05518,-1.68493 6.96771,-6.18224 16.79969,-12.77852 4.4,-2.95196 8.225,-5.6096 8.5,-5.90586 0.275,-0.29626 2.75,-2.09049 5.5,-3.98717 2.75,-1.89668 5.225,-3.69668 5.5,-4 0.275,-0.30332 2.13169,-1.45149 4.12597,-2.55149 1.99429,-1.1 8.85013,-5.4875 15.23521,-9.75 6.38508,-4.2625 11.89641,-7.75 12.24739,-7.75 0.35098,0 3.88642,-1.97207 7.85652,-4.38238 3.97011,-2.41031 8.14896,-4.67774 9.28634,-5.03873 1.13738,-0.36099 2.6137,-1.31392 3.28071,-2.11762 0.66701,-0.8037 1.81009,-1.46127 2.54017,-1.46127 0.73009,0 3.32775,-1.35 5.77258,-3 2.44484,-1.65 5.1299,-3 5.9668,-3 0.8369,0 1.67164,-0.35153 1.85498,-0.78117 C 996.6347,542.12199 1020.8611,530 1022.5852,530 c 0.7781,0 1.4148,-0.45 1.4148,-1 0,-0.55 0.5853,-1 1.3006,-1 1.8398,0 6.6823,-2.35194 6.6916,-3.25 0,-0.4125 0.6137,-0.75 1.3542,-0.75 0.7405,0 2.653,-0.63285 4.25,-1.40633 9.1281,-4.42105 43.9189,-18.58759 62.9036,-25.61386 1.1,-0.40711 7.85,-2.61956 15,-4.91656 7.15,-2.29699 13.9,-4.53067 15,-4.96372 4.3744,-1.72214 13.4506,-4.52589 22,-6.79605 4.95,-1.3144 11.3625,-3.04539 14.25,-3.84665 16.1115,-4.4708 29.9708,-7.92141 35.75,-8.90081 2.2,-0.37283 6.25,-1.29392 9,-2.04685 11.0544,-3.02664 33.9826,-7.53989 48.3663,-9.52058 4.0515,-0.55791 7.734,-1.24157 8.1833,-1.51926 0.805,-0.49753 14.3243,-2.47384 30.9504,-4.5245 4.675,-0.57661 11.875,-1.50096 16,-2.05412 20.0967,-2.69495 52.4746,-5.20802 60.7063,-4.71183 3.7768,0.22765 8.1259,1.15597 9.7937,2.09043 1.65,0.92451 3.7875,1.96961 4.75,2.32244 0.9625,0.35283 1.75,1.26403 1.75,2.02488 0,0.76085 0.4435,1.38337 0.9856,1.38337 1.2467,0 7.0144,11.32377 7.0144,13.77148 0,1.00569 0.3632,2.25602 0.8071,2.77852 0.444,0.5225 1.8414,4.1 3.1055,7.95 1.2641,3.85 2.9208,8.40733 3.6816,10.12741 2.0028,4.52802 9.7759,29.21019 12.8721,40.87259 1.4601,5.5 3.276,11.8 4.0353,14 0.7594,2.2 2.5684,9.625 4.0201,16.5 1.4516,6.875 3.078,14.3 3.6141,16.5 0.9452,3.87855 5.8767,30.8314 7.8675,43 0.5399,3.3 1.1894,7.125 1.4432,8.5 0.2539,1.375 0.9362,7.45 1.5164,13.5 0.5802,6.05 1.4782,14.98606 1.9956,19.8579 2.2297,20.99458 3.2133,61.972 2.1277,88.6421 -1.5843,38.92534 -6.0119,80.82586 -11.0952,105 -9.3096,44.27329 -11.7954,54.9535 -13.1384,56.45 -0.4689,0.5225 -0.8526,2.09639 -0.8526,3.49753 0,1.40114 -1.3538,6.82364 -3.0084,12.05 -1.6547,5.22636 -3.8651,12.20247 -4.9121,15.50247 -1.047,3.3 -2.2029,7.35 -2.5687,9 -0.3658,1.65 -1.2675,4.35 -2.0039,6 -0.7364,1.65 -2.7552,7.05 -4.4861,12 -3.8134,10.90537 -11.4246,30.51061 -13.976,36 -1.0225,2.2 -2.676,6.025 -3.6744,8.5 -0.9984,2.475 -2.0775,4.725 -2.3982,5 -0.3206,0.275 -2.077,4.325 -3.9031,9 -1.8261,4.675 -4.112,9.4 -5.0797,10.5 -0.9677,1.1 -2.083,3.125 -2.4783,4.5 -0.3953,1.375 -1.7971,4.3801 -3.1149,6.6781 -1.3179,2.2979 -2.3962,4.8479 -2.3962,5.6666 0,0.8188 -0.3375,1.6386 -0.75,1.822 -0.7116,0.3162 -2.6924,3.9048 -10.3959,18.8333 -1.8447,3.575 -3.6029,6.725 -3.9069,7 -0.304,0.275 -1.6303,2.3 -2.9472,4.5 -1.3169,2.2 -2.6666,4.225 -2.9993,4.5 -0.3327,0.275 -1.3401,2.0821 -2.2386,4.0159 -0.8986,1.9337 -2.7876,5.2162 -4.1979,7.2944 -1.4103,2.0782 -2.5642,4.0082 -2.5642,4.289 0,0.2807 -1.9125,3.246 -4.25,6.5895 -2.3375,3.3435 -5.375,8.0025 -6.75,10.3533 -1.375,2.3508 -3.36,5.2186 -4.4112,6.3729 -1.0512,1.1543 -2.4012,2.956 -3,4.0037 -2.7737,4.8528 -17.8341,25.7313 -22.0888,30.6221 -3.7777,4.3425 -5.2516,6.1929 -6.125,7.6894 -1.4343,2.4577 -6.5875,8.7758 -11.1254,13.6405 -2.3377,2.506 -4.5055,5.3603 -4.8174,6.3429 -0.3118,0.9825 -1.2117,1.7864 -1.9996,1.7864 -0.7879,0 -1.4326,0.4821 -1.4326,1.0714 0,0.5893 -0.5625,1.6346 -1.25,2.3229 -0.6875,0.6882 -3.05,3.4271 -5.25,6.0864 -4.7599,5.7536 -7.5806,8.5193 -8.6886,8.5193 -0.4463,0 -0.8114,0.4564 -0.8114,1.0142 0,0.5578 -3.6,4.6288 -8,9.0465 -4.4,4.4178 -8,8.4614 -8,8.9858 0,0.5244 -0.4344,0.9535 -0.9653,0.9535 -0.5308,0 -5.4526,4.5 -10.9373,10 -5.4846,5.5 -10.4502,10 -11.0347,10 -0.5845,0 -1.0627,0.45 -1.0627,1 0,1.1791 -3.6522,5 -4.7792,5 -0.4286,0 -1.4411,0.9273 -2.25,2.0607 -0.809,1.1334 -4.7084,4.7439 -8.6654,8.0235 -8.1347,6.7418 -14.6013,12.3536 -18.0521,15.6658 -1.2893,1.2375 -2.6744,2.25 -3.078,2.25 -0.4036,0 -1.3825,0.9 -2.1753,2 -0.7928,1.1 -2.0313,2 -2.7521,2 -0.7209,0 -1.5539,0.6338 -1.8511,1.4084 -0.2973,0.7747 -1.8688,1.9587 -3.4924,2.6312 -1.6235,0.6725 -3.2786,1.7288 -3.6781,2.3474 -0.3995,0.6187 -3.4263,3.1257 -6.7263,5.5713 -3.3,2.4456 -6.5789,5.0147 -7.2864,5.7091 -0.7075,0.6944 -2.62,2.0503 -4.25,3.0132 -1.63,0.9628 -2.9636,2.0196 -2.9636,2.3484 0,0.3287 -1.575,1.2157 -3.5,1.971 -1.925,0.7553 -3.5,1.7329 -3.5,2.1725 0,0.4395 -1.9067,2.043 -4.2372,3.5633 -2.3304,1.5203 -5.0443,3.4392 -6.0309,4.2642 -0.9865,0.825 -3.4672,2.4199 -5.5128,3.5441 -2.0455,1.1243 -6.285,3.7118 -9.4211,5.75 -3.136,2.0383 -5.9434,3.7059 -6.2385,3.7059 -0.2952,0 -1.4548,0.7875 -2.5769,1.75 -2.1368,1.8328 -9.368,6.2493 -14.4826,8.8454 -1.65,0.8376 -7.05,3.943 -12,6.901 -4.95,2.9579 -16.875,9.3202 -26.5,14.1384 -9.625,4.8182 -17.65,9.1214 -17.8333,9.5628 -0.1834,0.4413 -0.9507,0.8024 -1.7051,0.8024 -0.7545,0 -4.2045,1.2992 -7.6667,2.887 -9.1925,4.2159 -11.8364,5.3313 -27.2949,11.514 -7.7,3.0797 -14.78139,6.0494 -15.73643,6.5992 -0.95504,0.5499 -2.33302,0.9998 -3.06217,0.9998 -0.72916,0 -3.09776,0.8358 -5.26357,1.8573 -2.16581,1.0216 -6.18185,2.4049 -8.92453,3.074 -2.74269,0.6692 -5.44269,1.5814 -6,2.0272 -0.55732,0.4458 -2.5883,1.1395 -4.5133,1.5415 -1.925,0.402 -3.97578,1.1121 -4.5573,1.578 -0.58151,0.4659 -3.50651,1.5094 -6.5,2.3189 -2.99348,0.8096 -6.7927,1.9135 -8.4427,2.4533 -22.241,7.2749 -70.74587,18.0868 -99.25,22.1232 -3.9875,0.5646 -10.2875,1.472 -14,2.0164 -26.17625,3.8386 -57.24112,6.0021 -90.75,6.3203 -11,0.1044 -21.35,0.1054 -23,0 z m 65,-63.3747 c 21.57388,-1.7569 42.91055,-3.9534 47.5,-4.8898 2.475,-0.505 11.25,-2.1098 19.5,-3.5662 17.32635,-3.0587 38.43935,-7.326 39.50492,-7.9845 0.40225,-0.2486 4.5032,-1.1748 9.11322,-2.0582 4.61002,-0.8834 10.18186,-2.2982 12.38186,-3.144 2.2,-0.8457 6.25,-2.1231 9,-2.8386 11.28496,-2.9361 19.94393,-5.6585 38,-11.9471 10.45,-3.6396 19.7875,-6.8705 20.75,-7.1799 0.9625,-0.3093 1.75,-0.96 1.75,-1.4458 0,-0.4859 0.81,-0.8834 1.8,-0.8834 0.99,0 2.2275,-0.3756 2.75,-0.8347 0.5225,-0.4591 3.2,-1.646 5.95,-2.6376 2.75,-0.9916 8.6,-3.4824 13,-5.5352 4.4,-2.0527 11.028,-5.1408 14.729,-6.8624 3.7009,-1.7215 7.3759,-3.1301 8.1666,-3.1301 0.7908,0 1.5877,-0.3536 1.7711,-0.7857 0.1833,-0.4322 4.1583,-2.75 8.8333,-5.1507 4.675,-2.4007 11.425,-5.9587 15,-7.9067 3.575,-1.948 9.5207,-5.1594 13.2126,-7.1365 3.692,-1.9771 7.8579,-4.5905 9.2576,-5.8076 1.3998,-1.217 2.9977,-2.2128 3.551,-2.2128 0.9811,0 4.3198,-1.7076 6.4279,-3.2877 6.6802,-5.0068 13.5571,-9.5795 15.1824,-10.0953 1.1088,-0.352 2.9251,-1.4869 4.0363,-2.5221 1.1112,-1.0353 3.328,-2.5757 4.9263,-3.4231 1.5982,-0.8475 4.1238,-2.6953 5.6123,-4.1063 1.4885,-1.411 3.2885,-2.5805 4,-2.5988 1.7026,-0.044 5.7936,-3.4875 5.7936,-4.877 0,-0.5993 1.0125,-1.104 2.25,-1.1215 2.5793,-0.036 5.75,-2.1475 5.75,-3.8284 0,-0.6269 0.5482,-1.1398 1.2182,-1.1398 0.67,0 2.1325,-1.0487 3.25,-2.3304 1.1175,-1.2818 5.4068,-4.8521 9.5318,-7.9342 4.125,-3.0821 9.75,-7.6462 12.5,-10.1425 2.75,-2.4963 5.3696,-4.551 5.8214,-4.5658 0.4518,-0.015 1.4141,-0.5896 2.1384,-1.2771 0.7244,-0.6875 6.3732,-5.975 12.5531,-11.75 22.5047,-21.0305 52.2461,-51.6745 61.0094,-62.861 2.3098,-2.9485 4.9372,-6.0987 5.8387,-7.0004 0.9014,-0.9017 3.868,-4.5643 6.5924,-8.1391 2.7243,-3.5747 5.2664,-6.7245 5.6492,-6.9995 0.3827,-0.275 2.8474,-3.425 5.4771,-7 2.6297,-3.575 5.3751,-7.0946 6.1008,-7.8214 0.7257,-0.7268 1.3267,-1.6268 1.3355,-2 0.01,-0.3732 1.2463,-2.0863 2.75,-3.8069 1.5037,-1.7206 3.859,-4.9976 5.234,-7.2823 1.375,-2.2847 3.5241,-5.377 4.7758,-6.8717 1.2518,-1.4947 2.538,-3.7302 2.8585,-4.9677 0.3204,-1.2375 0.9837,-2.25 1.4741,-2.25 0.4904,0 0.8994,-0.5625 0.9089,-1.25 0.01,-0.6875 1.022,-2.2035 2.25,-3.3688 1.228,-1.1653 3.1666,-3.8653 4.3081,-6 3.0451,-5.6947 4.8567,-8.816 5.445,-9.3812 0.2861,-0.275 1.1861,-1.8152 2,-3.4226 2.844,-5.6176 3.4594,-6.5774 4.2167,-6.5774 0.4196,0 0.7629,-0.52 0.7629,-1.1556 0,-0.6356 1.0603,-2.5481 2.3561,-4.25 1.2959,-1.7019 2.6762,-4.1069 3.0674,-5.3444 0.3912,-1.2375 1.131,-2.25 1.6439,-2.25 0.5129,0 0.9326,-0.9096 0.9326,-2.0214 0,-1.1118 1.0259,-3.6993 2.2798,-5.75 3.5724,-5.8426 4.2466,-7.0972 9.5269,-17.7286 11.3198,-22.79171 17.1347,-35.15751 17.756,-37.75945 0.3624,-1.5177 1.059,-3.00675 1.5481,-3.30902 0.4891,-0.30226 0.8892,-1.42911 0.8892,-2.50412 0,-1.075 0.4342,-2.73594 0.9649,-3.69098 1.5952,-2.87067 5.0351,-11.06454 5.0351,-11.99374 0,-0.47687 0.8514,-2.63905 1.892,-4.80486 2.1186,-4.40952 6.5568,-17.38831 10.5795,-30.93783 1.4696,-4.95 3.5235,-11.475 4.5642,-14.5 1.7121,-4.97643 3.0046,-9.49809 6.1456,-21.5 0.5757,-2.2 1.2194,-4.9 1.4303,-6 1.1629,-6.0649 4.3805,-20.48019 5.2453,-23.5 0.5513,-1.925 1.5288,-6.425 2.1723,-10 1.8425,-10.23667 2.7264,-15.05037 3.9477,-21.5 0.6249,-3.3 1.5246,-10.05 1.9994,-15 0.4748,-4.95 1.3335,-12.68729 1.9084,-17.19397 0.5748,-4.50669 1.8242,-20.85832 2.7764,-36.33696 1.5285,-24.84653 1.5875,-31.79321 0.5032,-59.30603 -0.6754,-17.13967 -1.6612,-34.31304 -2.1905,-38.16304 -0.5294,-3.85 -1.6476,-13.075 -2.4849,-20.5 -0.8373,-7.425 -1.9599,-15.975 -2.4946,-19 -0.5347,-3.025 -1.4255,-8.62241 -1.9795,-12.43868 -0.554,-3.81627 -1.3878,-7.19127 -1.8528,-7.5 -0.465,-0.30873 -1.6309,-2.6415 -2.5909,-5.18394 -2.1764,-5.76374 -5.4257,-9.36199 -13.083,-14.48828 -6.5829,-4.40695 -12.1852,-6.3891 -18.058,-6.3891 -6.0607,0 -25.5748,2.06781 -29.4301,3.11855 -1.925,0.52465 -10.7,2.07245 -19.5,3.43955 -25.6623,3.98671 -42.0728,7.46113 -73,15.45547 -11,2.84339 -21.125,5.41392 -22.5,5.7123 -1.375,0.29839 -2.95,0.88204 -3.5,1.297 -0.55,0.41497 -3.608,1.33079 -6.7956,2.03515 -3.1876,0.70437 -6.0267,1.65446 -6.3091,2.11132 -0.2823,0.45686 -1.4542,0.83066 -2.6041,0.83066 -1.9666,0 -17.2399,5.16301 -21.0276,7.10824 -0.9551,0.49047 -2.841,0.89176 -4.191,0.89176 -1.35,0 -2.7327,0.45 -3.0726,1 -0.3399,0.55 -1.4915,1 -2.559,1 -1.0676,0 -1.941,0.39992 -1.941,0.88871 0,0.48879 -1.626,1.19374 -3.6132,1.56655 -1.9873,0.37282 -5.9248,1.73365 -8.75,3.02407 -2.8253,1.29043 -8.2868,3.55172 -12.1368,5.0251 -3.85,1.47338 -9.475,3.80979 -12.5,5.19202 -3.025,1.38223 -6.4,2.88058 -7.5,3.32967 -1.7152,0.70027 -14.4965,6.55271 -22.5,10.30256 -1.375,0.64423 -3.0946,1.73382 -3.8214,2.42132 -0.7268,0.6875 -2.1052,1.25 -3.0632,1.25 -1.4367,0 -10.8806,5.00961 -17.1154,9.07902 -0.825,0.53848 -2.2875,1.24346 -3.25,1.56664 -0.9625,0.32318 -1.75,0.98512 -1.75,1.47097 0,0.48585 -1.125,0.88337 -2.5,0.88337 -1.375,0 -2.5,0.45 -2.5,1 0,0.55 -0.6375,1 -1.4167,1 -0.7791,0 -1.5666,0.3375 -1.75,0.75 -0.1833,0.4125 -2.5833,1.87242 -5.3333,3.24426 -2.75,1.37185 -5.5946,3.05935 -6.3214,3.75 -0.7268,0.69066 -1.9643,1.25574 -2.75,1.25574 -0.7857,0 -1.4286,0.675 -1.4286,1.5 0,0.83333 -0.8889,1.5 -2,1.5 -1.1,0 -2,0.45 -2,1 0,0.55 -0.9,1 -2,1 -1.1,0 -2,0.42121 -2,0.93602 0,0.5148 -1.8,1.94767 -4,3.18414 -2.2,1.23647 -4,2.61526 -4,3.06398 0,0.44872 -0.6942,0.81586 -1.5427,0.81586 -0.8485,0 -3.9793,1.8 -6.9573,4 -2.97803,2.2 -5.88382,4 -6.4573,4 -0.57349,0 -1.0427,0.34377 -1.0427,0.76393 0,0.42016 -1.8,1.8764 -4,3.23607 -2.2,1.35967 -4,2.81591 -4,3.23607 0,0.42016 -0.97236,0.76393 -2.1608,0.76393 -1.18844,0 -3.32594,1.28109 -4.75,2.84688 -1.42406,1.56578 -3.93902,3.70328 -5.5888,4.75 -3.45426,2.19158 -6.02342,4.16749 -8.65068,6.65312 -1.01735,0.9625 -2.29591,1.75 -2.84125,1.75 -0.54534,0 -1.55358,0.9 -2.24054,2 -0.68696,1.1 -1.58973,2 -2.00616,2 -0.41642,0 -2.42693,1.575 -4.46779,3.5 -2.04086,1.925 -4.04645,3.5 -4.45686,3.5 -0.41042,0 -1.87121,1.125 -3.24621,2.5 -1.375,1.375 -2.74546,2.5 -3.04546,2.5 -0.3,0 -2.34545,1.8 -4.54545,4 -2.2,2.2 -4.28472,4 -4.6327,4 -0.34799,0 -1.36049,0.80043 -2.25,1.77874 -0.88952,0.97831 -4.51158,4.24081 -8.04903,7.25 -7.57387,6.44283 -38.87607,37.69686 -48.12554,48.05147 -3.5435,3.96689 -7.56773,8.45065 -8.94273,9.96393 -1.375,1.51328 -4.525,5.13746 -7,8.05374 -2.475,2.91628 -6.3,7.38797 -8.5,9.9371 -5.31681,6.16057 -7.46502,8.79172 -10.73487,13.14819 -1.50418,2.00404 -3.31899,4.24516 -4.03291,4.98027 -0.71393,0.73511 -2.38689,2.91156 -3.71769,4.83656 -1.33081,1.925 -3.2285,4.22778 -4.21709,5.1173 -0.98859,0.88951 -1.79744,2.04282 -1.79744,2.5629 0,0.52009 -1.35,2.239 -3,3.8198 -1.65,1.5808 -3,3.46499 -3,4.18709 0,0.7221 -0.45,1.31291 -1,1.31291 -0.55,0 -1,0.60526 -1,1.34501 0,0.73976 -0.9,2.1595 -2,3.15499 -1.1,0.99549 -2,2.27472 -2,2.84275 0,0.56803 -1.93961,3.53579 -4.31024,6.59501 -2.37063,3.05923 -6.51106,8.93724 -9.20096,13.06224 -2.6899,4.125 -5.13779,7.725 -5.43976,8 -0.98858,0.90028 -3.09467,4.46296 -3.6947,6.25 -0.32318,0.9625 -1.04801,1.75 -1.61073,1.75 -1.57981,0 -3.67644,3.24791 -3.71181,5.75 -0.0175,1.2375 -0.4818,2.25 -1.0318,2.25 -0.55,0 -1,0.675 -1,1.5 0,0.825 -0.39541,1.5 -0.87868,1.5 -0.48327,0 -1.4791,1.4625 -2.21296,3.25 -0.73385,1.7875 -2.13844,4.12235 -3.12132,5.18856 -0.98287,1.06621 -1.78704,2.49121 -1.78704,3.16667 0,0.67546 -0.3375,1.3781 -0.75,1.56144 -1.23511,0.54893 -4.61413,5.91183 -8.24347,13.08333 -1.87881,3.7125 -3.77389,6.75 -4.21128,6.75 -0.43739,0 -0.79525,0.9 -0.79525,2 0,1.1 -0.37308,2 -0.82906,2 -0.45599,0 -1.88961,2.2643 -3.18582,5.03177 -1.29622,2.76747 -2.9378,5.514 -3.64797,6.10338 -0.71017,0.58939 -2.51784,3.61259 -4.01706,6.71823 -1.49922,3.10564 -2.97205,5.87162 -3.27297,6.14662 -1.14295,1.04451 -3.04712,5.03108 -3.04712,6.37944 0,0.77362 -0.675,1.6656 -1.5,1.98219 -0.825,0.31658 -1.5,1.20962 -1.5,1.98454 0,0.77492 -0.675,1.96914 -1.5,2.65383 -0.825,0.68469 -1.5,1.88301 -1.5,2.66294 0,1.62266 -3.58702,6.99226 -6.40301,9.58496 -2.52214,2.3221 -9.0954,2.3234 -11.13351,0 C 713.22746,1003.2865 704,988.35235 704,985.84164 c 0,-0.48476 -1.17733,-2.74639 -2.61628,-5.02585 -1.43896,-2.27945 -3.83622,-6.43301 -5.32725,-9.23012 -4.34683,-8.15451 -6.50361,-11.57258 -7.30647,-11.57935 -0.4125,-0.003 -0.75,-0.69954 -0.75,-1.54681 0,-0.84727 -0.9,-2.87227 -2,-4.5 -1.1,-1.62773 -2.9,-4.29129 -4,-5.91902 -1.1,-1.62773 -2,-3.23415 -2,-3.56982 0,-0.33568 -1.35,-2.57248 -3,-4.97067 -1.65,-2.39819 -3,-4.84177 -3,-5.43018 0,-0.5884 -0.3596,-1.06982 -0.79911,-1.06982 -0.43951,0 -1.38671,-1.62498 -2.1049,-3.61108 -1.20945,-3.34468 -2.68563,-5.59938 -5.84599,-8.92908 -0.6875,-0.72434 -1.25,-1.63204 -1.25,-2.0171 0,-0.38507 -1.8,-3.33712 -4,-6.56012 -2.2,-3.223 -4,-6.36283 -4,-6.97741 0,-0.97805 -4.60448,-7.42513 -7.48562,-10.48117 -0.55791,-0.59178 -2.34162,-3.17928 -3.96379,-5.75 C 642.92841,886.10332 641.24091,884 640.80059,884 640.36026,884 640,883.325 640,882.5 c 0,-0.825 -0.71046,-2.2875 -1.57881,-3.25 -0.86834,-0.9625 -3.56614,-4.45 -5.9951,-7.75 -2.42897,-3.3 -4.756,-6.45177 -5.1712,-7.00394 -0.41519,-0.55217 -2.77989,-3.70217 -5.25489,-7 -2.475,-3.29783 -4.8375,-6.14606 -5.25,-6.32939 -0.4125,-0.18334 -0.75,-0.93334 -0.75,-1.66667 0,-0.73333 -0.34085,-1.48333 -0.75744,-1.66667 -0.41659,-0.18333 -2.32909,-2.35041 -4.25,-4.81572 -1.92091,-2.46532 -4.16756,-5.20942 -4.99256,-6.09801 -0.825,-0.88858 -3.3,-4.01084 -5.5,-6.93836 -2.2,-2.92751 -5.6875,-6.97623 -7.75,-8.99716 -2.0625,-2.02092 -3.75,-4.02306 -3.75,-4.4492 0,-0.42613 -1.92492,-2.63331 -4.27761,-4.90483 -2.35268,-2.27153 -5.26522,-5.53201 -6.4723,-7.24552 -2.98057,-4.23106 -40.94064,-42.33948 -50.20307,-50.39926 -13.18788,-11.47554 -14.257,-12.42873 -17.94472,-15.99878 -1.99613,-1.93243 -5.19824,-4.61075 -7.11581,-5.95182 C 501.06892,730.6936 499.275,729.34349 499,729.03443 497.16658,726.97394 488.02765,720 487.16091,720 c -0.58384,0 -1.42139,-0.60416 -1.86122,-1.34259 -0.43983,-0.73842 -2.14969,-2.19052 -3.79969,-3.2269 -1.65,-1.03637 -3.225,-2.12084 -3.5,-2.40994 C 476.10926,711.03293 466.09664,704 465.15763,704 464.52093,704 464,703.65623 464,703.23607 c 0,-0.42016 -1.8,-1.8764 -4,-3.23607 -2.2,-1.35967 -4,-2.81591 -4,-3.23607 C 456,696.34377 455.3625,696 454.58333,696 c -0.77916,0 -1.56666,-0.3375 -1.75,-0.75 -0.34287,-0.77147 -7.88389,-5.9093 -15.83333,-10.78752 -2.475,-1.5188 -4.725,-3.03169 -5,-3.36197 -0.275,-0.33028 -2.975,-1.90323 -6,-3.49543 -3.025,-1.59221 -6.175,-3.45996 -7,-4.15056 -0.825,-0.6906 -3.525,-2.36314 -6,-3.71675 -9.15001,-5.00426 -16.59459,-9.11819 -20,-11.05213 -5.43849,-3.08853 -35.76854,-17.92647 -41.5,-20.30245 -1.65,-0.68401 -5.925,-2.56209 -9.5,-4.17351 -3.575,-1.61143 -9.875,-4.22114 -14,-5.79935 -4.125,-1.57822 -7.65,-3.21618 -7.83333,-3.63991 C 319.98333,624.34669 319.18973,624 318.4031,624 c -0.78663,0 -2.21163,-0.41145 -3.16667,-0.91432 C 311.33272,621.03016 303.00799,618 301.26462,618 c -1.02554,0 -2.29212,-0.37996 -2.81462,-0.84435 -0.5225,-0.46439 -7.025,-2.76801 -14.45,-5.11916 -7.425,-2.35116 -14.4,-4.63907 -15.5,-5.08425 -1.1,-0.44519 -4.475,-1.526 -7.5,-2.40182 -13.9468,-4.03794 -16.69475,-4.85205 -19.5,-5.77707 -4.92269,-1.62323 -21.63035,-5.82982 -27,-6.79796 -2.75,-0.49581 -6.8,-1.3697 -9,-1.94197 -6.12844,-1.59415 -23.3062,-5.12188 -29.85981,-6.13221 -3.2229,-0.49685 -8.3979,-1.53395 -11.5,-2.30467 C 161.03808,580.82583 154,579.64082 148.5,578.9632 c -5.5,-0.67762 -10.9,-1.3731 -12,-1.5455 -1.1,-0.17241 -6.46079,-1.01192 -11.91287,-1.86558 -19.11218,-2.99251 -28.148485,-1.45701 -37.945347,6.44788 -4.163147,3.35916 -7.79054,7.3869 -9.326754,10.35612 -2.249492,4.34786 -5.90006,17.35542 -6.775976,24.14388 -10.084961,78.1598 -10.868815,108.76845 -4.494363,175.5 1.129569,11.825 2.705308,24.875 3.501644,29 0.796335,4.125 1.855519,10.2 2.353742,13.5 0.976724,6.46938 6.02708,31.61812 8.635234,43 0.882226,3.85 2.415605,10.74541 3.407508,15.32314 0.991903,4.57773 2.310547,8.83023 2.930321,9.45 0.619774,0.61977 1.131829,2.04936 1.137901,3.17686 0.0061,1.1275 1.629924,6.55 3.60856,12.05 1.978636,5.5 3.929189,11.35 4.334562,13 1.087255,4.42549 6.067138,18.61442 7.545838,21.5 0.70461,1.375 2.50575,6.1 4.00252,10.5 1.49677,4.4 3.12102,8.4275 3.60944,8.95 0.48842,0.5225 0.88804,1.50883 0.88804,2.19184 0,0.68302 1.85344,5.20552 4.11875,10.05 2.26532,4.84449 4.99756,10.83316 6.07165,13.30816 1.07409,2.475 2.37065,5.2814 2.88124,6.2364 0.5106,0.9551 0.92836,2.4176 0.92836,3.25 0,0.8325 0.45,1.5136 1,1.5136 0.55,0 1,0.8625 1,1.9167 0,1.0541 0.40517,2.0666 0.90038,2.25 0.4952,0.1833 4.35219,7.3083 8.57109,15.8333 7.78838,15.7378 9.57333,19.1044 10.60384,20 0.31642,0.275 1.44142,2.075 2.5,4 1.05858,1.925 2.14969,3.725 2.42469,4 0.275,0.275 1.58952,2.525 2.92116,5 1.33164,2.475 5.71914,9.498 9.75,15.6067 4.03086,6.1086 7.32884,11.4442 7.32884,11.8568 0,0.4126 1.6875,2.9118 3.75,5.5538 2.0625,2.6421 6.675,8.9914 10.25,14.1096 3.575,5.1183 7.50551,10.446 8.73447,11.8395 2.81304,3.1896 3.18519,3.6596 6.7578,8.5336 1.61258,2.2 3.62401,4.7323 4.46984,5.6273 0.84584,0.8951 2.43789,2.8916 3.53789,4.4368 1.1,1.5451 2.9,3.8214 4,5.0583 1.1,1.2369 4.025,4.6308 6.5,7.542 2.475,2.9113 5.9625,6.7573 7.75,8.5467 1.7875,1.7895 3.25,3.4484 3.25,3.6866 0,2.0062 50.69894,52.6023 52.70923,52.6023 0.29007,0 1.71165,1.272 3.15908,2.8266 2.29327,2.463 10.48022,9.5676 16.63169,14.4329 5.24326,4.1469 15.14094,12.3062 16.32143,13.4548 0.72678,0.7071 1.63138,1.2857 2.01022,1.2857 0.37883,0 1.80919,1.0355 3.17857,2.3012 1.36938,1.2657 4.05654,3.1782 5.97147,4.25 1.91492,1.0718 4.00221,2.3988 4.6384,2.9488 3.53559,3.0566 6.01351,4.9138 11.64182,8.7259 3.43095,2.3237 6.38809,4.5735 6.57142,4.9995 0.18334,0.426 0.73171,0.7746 1.21861,0.7746 0.83093,0 5.71053,3.1084 19.10701,12.1715 3.11242,2.1057 6.33742,3.8285 7.16666,3.8285 0.82925,0 1.65772,0.3538 1.84106,0.7861 0.59942,1.4137 6.60359,5.2139 8.2377,5.2139 0.8776,0 1.59563,0.3673 1.59563,0.8163 0,0.4489 3.0375,2.3614 6.75,4.25 3.7125,1.8885 6.975,3.663 7.25,3.9433 0.275,0.2802 2.1875,1.3951 4.25,2.4774 2.0625,1.0823 3.75,2.3155 3.75,2.7404 0,0.4249 0.60312,0.7726 1.34028,0.7726 1.73228,0 14.05591,6.1056 14.49305,7.1804 0.18334,0.4508 0.97304,0.8196 1.75491,0.8196 0.78186,0 3.75358,1.125 6.60382,2.5 2.85023,1.375 5.77303,2.5 6.49509,2.5 0.72207,0 1.31285,0.378 1.31285,0.8399 0,0.462 1.8,1.434 4,2.1601 2.2,0.7261 4,1.6981 4,2.1601 0,0.4619 0.81,0.8399 1.8,0.8399 0.99,0 2.2275,0.3801 2.75,0.8446 0.5225,0.4646 3.875,1.8845 7.45,3.1554 3.575,1.2709 6.9275,2.6908 7.45,3.1554 0.5225,0.4645 1.76,0.8446 2.75,0.8446 0.99,0 1.8,0.3975 1.8,0.8834 0,0.4859 1.0125,1.124 2.25,1.4181 2.58591,0.6144 10.30226,3.3252 13.25,4.6547 2.82385,1.2737 30.51923,10.3674 39.5,12.9697 4.125,1.1953 8.88195,2.601 10.571,3.1237 1.68905,0.5227 3.78905,0.9504 4.66666,0.9504 0.87762,0 1.74567,0.3451 1.92901,0.767 0.28356,0.6525 17.17613,4.8654 23.33333,5.8193 1.1,0.1704 5.6,1.1947 10,2.2762 4.4,1.0815 12.275,2.6832 17.5,3.5592 5.225,0.876 11.3,2.0019 13.5,2.5019 5.14053,1.1683 34.35768,4.7268 50.5,6.1507 32.18122,2.8385 74.87271,3.1946 103.5,0.8632 z M 322,996.34118 c -3.575,-0.1504 -10.325,-0.78352 -15,-1.40694 -13.27256,-1.76992 -41.60279,-8.48252 -42.5983,-10.09329 C 264.11585,984.37843 262.88365,984 261.66349,984 c -1.22016,0 -3.10611,-0.61031 -4.19098,-1.35624 C 256.38763,981.89783 253.25,980.43098 250.5,979.38408 243.39376,976.67881 227,967.96897 227,966.89876 227,966.40444 226.53101,966 225.95779,966 c -0.57321,0 -1.58571,-0.45767 -2.25,-1.01705 -0.66428,-0.55938 -4.35779,-3.346 -8.20779,-6.1925 -3.85,-2.84649 -7.15,-5.53882 -7.33333,-5.98295 -0.18334,-0.44412 -0.69949,-0.8075 -1.14702,-0.8075 -1.92007,0 -29.73255,-29.12416 -30.92768,-32.38627 -0.22442,-0.61255 -1.26532,-1.72164 -2.31312,-2.46464 -1.0478,-0.74301 -2.32089,-2.31801 -2.8291,-3.5 -0.5082,-1.182 -2.95268,-4.84909 -5.43216,-8.14909 -2.47949,-3.3 -4.9286,-6.95848 -5.44248,-8.12995 -0.51388,-1.17147 -2.93383,-5.24938 -5.37766,-9.06201 -2.44384,-3.81264 -4.74295,-7.87603 -5.10912,-9.02975 -0.36618,-1.15372 -1.32336,-2.64342 -2.12706,-3.31043 C 146.65757,875.30085 146,873.91021 146,872.87756 146,871.8449 145.65985,871 145.24411,871 c -0.41574,0 -1.37159,-1.4625 -2.12411,-3.25 -0.75253,-1.7875 -3.2693,-7.3 -5.59284,-12.25 -2.32353,-4.95 -4.54888,-10.35 -4.94522,-12 -0.39635,-1.65 -1.65059,-5.025 -2.78721,-7.5 -1.13662,-2.475 -2.38812,-5.4 -2.78111,-6.5 -5.7191,-16.00798 -13.15638,-40.35158 -14.97011,-49 -2.95695,-14.09956 -4.6818,-20.22203 -6.14594,-21.81544 C 103.53751,756.11614 94.911664,750.6881 89.814835,748.56409 73.236359,741.65532 71.483769,740.07285 71.808785,732.30582 72.086651,725.66554 73.967059,721.96685 80,716.19402 84.574766,711.8165 95.525494,704 97.083536,704 c 0.470597,0 2.331819,-0.80805 4.136044,-1.79567 C 108.54883,698.19237 130.68195,690 134.19171,690 c 1.00948,0 2.61682,-0.43582 3.57186,-0.96849 5.1868,-2.89291 24.4085,-6.97319 42.23643,-8.96571 5.225,-0.58397 13.14839,-1.57521 17.60753,-2.20276 5.4001,-0.75997 17.42193,-0.9473 36,-0.56096 33.17307,0.68984 50.50646,2.7063 72.39247,8.42169 3.025,0.78996 6.625,1.65918 8,1.93159 1.375,0.27241 3.4,0.8441 4.5,1.27042 3.99802,1.5495 9.07688,3.25683 12.5,4.20206 1.925,0.53155 4.4,1.34983 5.5,1.81839 1.1,0.46856 3.575,1.40262 5.5,2.0757 1.925,0.67307 6.12631,2.51848 9.33623,4.10092 3.20993,1.58243 6.47243,2.87715 7.25,2.87715 0.77758,0 1.41377,0.45 1.41377,1 0,0.55 0.70822,1 1.57382,1 1.56704,0 21.47396,9.63954 22.42618,10.85944 0.92681,1.18735 4.96092,3.14056 6.48643,3.14056 0.83246,0 1.51357,0.33827 1.51357,0.75172 0,0.41344 2.1375,1.85387 4.75,3.20095 4.26315,2.1982 7.92043,4.46952 16.45951,10.22202 1.49023,1.00392 3.14023,1.82531 3.66666,1.82531 0.52644,0 1.10716,0.39103 1.2905,0.86895 0.18333,0.47793 4.60833,3.7231 9.83333,7.2115 5.225,3.4884 9.725,6.5965 10,6.90689 0.275,0.31038 2.525,2.12436 5,4.03106 2.475,1.9067 4.65,3.80757 4.83333,4.22416 0.18334,0.41659 0.81199,0.75744 1.39701,0.75744 0.99313,0 7.92901,5.30221 11.15231,8.5255 0.78774,0.78774 4.2864,3.71543 7.7748,6.50597 11.28642,9.02855 43.84255,39.5029 43.84255,41.03907 0,0.9724 6.85528,7.78853 9.72318,9.66765 1.25225,0.82051 2.27682,1.92608 2.27682,2.45682 0,0.53074 2.75144,3.71643 6.11431,7.0793 3.36287,3.36287 7.97537,8.59199 10.25,11.62026 2.27463,3.02828 5.26069,6.69602 6.63569,8.15054 3.52022,3.7238 6.23384,7.04727 8.12854,9.95534 0.8957,1.37475 2.74719,3.69441 4.11443,5.15479 1.36724,1.46038 3.53772,4.16038 4.82328,6 1.28557,1.83962 2.62337,3.56976 2.9729,3.84476 0.34953,0.275 2.17121,3.64054 4.04818,7.47897 4.11783,8.42103 4.62392,16.8803 1.49524,24.99286 -2.10378,5.45505 -9.18871,13.68634 -13.73042,15.95204 -7.54018,3.76154 -20.96164,4.32378 -24.26877,1.01665 C 533.79109,928.64823 532.66071,928 532.07143,928 531.48214,928 531,927.64702 531,927.21561 531,926.30339 525.66525,923 524.19209,923 c -0.97754,0 -4.98317,3.23507 -12.07231,9.75 -1.94505,1.7875 -3.91316,3.25 -4.37357,3.25 -0.46042,0 -1.96212,1.125 -3.33712,2.5 -1.375,1.375 -2.81704,2.50719 -3.20454,2.51597 -0.3875,0.009 -2.27744,1.40193 -4.19986,3.09587 C 493.30253,947.374 482.54197,954 480.94642,954 480.42589,954 480,954.35865 480,954.797 c 0,0.43835 -3.4875,2.55177 -7.75,4.69649 -4.2625,2.14471 -7.975,4.19753 -8.25,4.5618 C 463.10686,965.23838 440.27962,976 438.66322,976 436.61754,976 432,978.11308 432,979.04922 c 0,0.40051 -1.67195,1.04186 -3.71544,1.42522 -2.0435,0.38336 -4.94615,1.33344 -6.45035,2.11129 -1.50419,0.77785 -3.85568,1.41427 -5.22553,1.41427 -1.36986,0 -2.7367,0.39812 -3.03742,0.8847 -0.30073,0.48659 -1.78979,1.11074 -3.30902,1.38701 -1.51923,0.27626 -7.03724,1.62418 -12.26224,2.99536 -24.47772,6.42363 -45.32885,8.36446 -76,7.07411 z m 30.80965,-57.34087 c 11.67272,-2.04251 24.97221,-5.60202 26.64035,-7.13008 0.5225,-0.47863 1.52883,-0.87023 2.2363,-0.87023 0.70746,0 4.77996,-1.94142 9.05,-4.31426 10.92488,-6.07092 12.50756,-7.02141 14.04646,-8.43574 0.74805,-0.6875 1.67767,-1.25 2.06581,-1.25 0.38814,0 2.07875,-1.2375 3.75691,-2.75 1.67816,-1.5125 4.96487,-4.325 7.30379,-6.25 2.33892,-1.925 5.53855,-4.85 7.11029,-6.5 7.47952,-7.85196 10.98083,-11.79488 10.98507,-12.37058 0.003,-0.34618 1.35254,-2.06751 3,-3.82519 1.64745,-1.75767 2.99537,-3.67017 2.99537,-4.25 0,-0.57982 0.34013,-1.05423 0.75585,-1.05423 0.41572,0 1.80397,-2.3625 3.085,-5.25 1.28103,-2.8875 2.9602,-6.65601 3.73149,-8.37446 C 451.68003,861.67957 454,849.58915 454,843.30101 c 0,-5.32781 -0.2051,-5.76771 -4.75,-10.18768 -2.6125,-2.54069 -7.675,-6.98517 -11.25,-9.87662 -8.33792,-6.7437 -7.4436,-6.07191 -15,-11.26749 -3.575,-2.45807 -6.98309,-4.91922 -7.57352,-5.46922 -0.59044,-0.55 -2.84044,-1.9 -5,-3 -2.15957,-1.1 -4.15148,-2.225 -4.42648,-2.5 -1.76599,-1.76599 -7.5192,-4.10942 -11.39195,-4.64024 -4.15625,-0.56968 -4.63603,-0.41515 -5.45735,1.75782 -0.49527,1.31033 -1.38696,7.36433 -1.98153,13.45333 C 386.03879,823.14707 384.1422,832 382.7926,832 382.35667,832 382,832.69395 382,833.54212 c 0,2.50596 -6.38969,14.40543 -7.75,14.43276 -0.6875,0.0138 -1.25,0.37483 -1.25,0.80225 C 373,849.90543 362.17348,861 361.07244,861 c -0.51127,0 -1.52423,0.56285 -2.25101,1.25079 -2.45927,2.3278 -11.28972,6.56339 -17.30111,8.29861 -8.96394,2.58748 -25.08858,2.40617 -33.8868,-0.38104 -11.10818,-3.51898 -18.51363,-7.99716 -26.88352,-16.25684 -4.2625,-4.20638 -7.75,-8.12512 -7.75,-8.70831 0,-0.58319 -0.69598,-1.75633 -1.54662,-2.60697 -2.10188,-2.10189 -6.87995,-15.63422 -8.33148,-23.59624 -2.6203,-14.37301 1.69958,-33.44496 10.07943,-44.5 2.08454,-2.75 3.792,-5.3375 3.79437,-5.75 0.002,-0.4125 0.6793,-0.75 1.5043,-0.75 0.825,0 1.5,-0.675 1.5,-1.5 0,-0.825 0.35625,-1.5 0.79166,-1.5 0.43542,0 2.48712,-1.59921 4.55935,-3.55379 3.06163,-2.88782 3.70971,-4.14729 3.45834,-6.7209 -0.26464,-2.70936 -1.06917,-3.54579 -5.56644,-5.78715 -8.3679,-4.1704 -16.76575,-5.27822 -35.35159,-4.66347 -14.4626,0.47836 -17.26353,0.85781 -23.80383,3.22482 -4.07689,1.47546 -8.00347,3.27361 -8.72574,3.99589 -0.72228,0.72227 -2.77263,4.39378 -4.55635,8.15891 -1.78371,3.76513 -3.59463,6.99569 -4.02426,7.17902 -0.42963,0.18334 -0.78601,1.30834 -0.79196,2.5 -0.006,1.19167 -0.70031,4.41667 -1.54301,7.16667 C 202.2836,783.55715 200,801.80441 200,812.02742 c 0,10.34975 1.51148,23.49754 3.53189,30.72258 2.80831,10.0426 4.87868,16.75917 5.62553,18.25 0.4133,0.825 1.66074,3.525 2.77211,6 1.11137,2.475 2.4494,5.175 2.97342,6 0.52401,0.825 1.22787,2.175 1.56412,3 2.40049,5.88959 14.4292,21.82054 22.53732,29.84867 7.02675,6.95742 15.95952,14.08961 17.77485,14.19197 0.39642,0.0223 2.27876,1.37235 4.18299,3 1.90422,1.62765 4.04172,2.95936 4.75,2.95936 0.70827,0 1.28777,0.45 1.28777,1 0,0.55 1.125,1 2.5,1 1.375,0 2.5,0.45 2.5,1 0,0.55 0.4549,1 1.0109,1 0.55599,0 3.14349,0.94485 5.75,2.09966 7.95699,3.52535 8.43873,3.6786 18.2391,5.80227 12.5328,2.71578 13.14522,2.77575 30,2.93788 10.50442,0.10105 17.61646,-0.40584 25.80965,-1.8395 z M 1093,996.41286 c -1.925,-0.22771 -7.775,-0.8631 -13,-1.41198 -11.8329,-1.24303 -32.1409,-5.55999 -45.5,-9.67212 -7.2697,-2.23773 -21.9169,-7.62695 -22.5,-8.27854 -0.275,-0.30731 -3.0875,-1.41742 -6.25,-2.4669 -3.1625,-1.04949 -5.75,-2.28507 -5.75,-2.74574 0,-0.46067 -0.67261,-0.83758 -1.49469,-0.83758 -1.59655,0 -18.3225,-8.41719 -19.93988,-10.03457 C 978.03444,960.43444 976.79,960 975.8,960 c -0.99,0 -1.8,-0.39541 -1.8,-0.87868 0,-0.48327 -1.35,-1.43787 -3,-2.12132 -1.65,-0.68345 -3,-1.63805 -3,-2.12132 C 968,954.39541 967.55592,954 967.01316,954 965.51857,954 952,945.71527 952,944.79932 952,944.35969 951.55,944 951,944 c -0.55,0 -1.7875,-0.68555 -2.75,-1.52345 -3.71901,-3.23756 -13.98927,-11.66805 -19.03335,-15.6238 -5.8179,-4.56261 -5.95216,-4.55575 -13.11769,0.67079 -9.08613,6.62742 -21.86363,5.33479 -32.695,-3.30756 -1.87215,-1.49379 -3.40391,-3.05039 -3.40393,-3.45912 -8e-5,-1.91273 -3.59929,-8.75686 -4.60509,-8.75686 -1.23379,0 -2.36649,-5.32749 -2.38393,-11.21249 -0.0115,-3.88163 3.2831,-13.85673 5.31109,-16.08041 0.64785,-0.71036 1.6279,-1.99261 2.1779,-2.84946 C 884.36158,875.84172 889.39401,869 889.95744,869 c 0.37085,0 1.6526,-1.74069 2.84832,-3.86819 1.19573,-2.1275 4.31609,-6.1724 6.93414,-8.98865 2.61806,-2.81626 6.5601,-7.589 8.7601,-10.60609 2.2,-3.01708 4.45,-5.51524 5,-5.55145 0.55,-0.0362 2.8,-2.38117 5,-5.21104 7.13423,-9.17676 51.94036,-53.203 57.06303,-56.06979 2.12529,-1.18938 5.93128,-4.30944 9.83146,-8.05962 1.63296,-1.57016 5.47473,-4.72016 8.53726,-7 3.06254,-2.27984 6.01825,-4.64052 6.56825,-5.24594 0.55,-0.60543 2.8,-2.40287 5,-3.99431 2.2,-1.59145 4.225,-3.14741 4.5,-3.45769 0.275,-0.31028 4.55,-3.21436 9.5,-6.45351 4.95,-3.23915 10.0678,-6.91933 11.373,-8.17817 1.3051,-1.25884 4.8331,-3.49242 7.8399,-4.96351 3.0068,-1.4711 6.0095,-3.16462 6.6726,-3.76338 0.6632,-0.59876 2.7602,-1.91849 4.6601,-2.93274 7.0375,-3.75688 9.4669,-5.17196 9.9544,-5.7983 0.275,-0.3533 3.425,-2.0675 7,-3.80933 3.575,-1.74183 7.175,-3.59133 8,-4.11001 0.825,-0.51868 2.625,-1.39218 4,-1.9411 1.375,-0.54892 3.2814,-1.44785 4.2364,-1.99761 0.9551,-0.54976 2.4176,-0.99957 3.25,-0.99957 0.8325,0 1.5136,-0.45 1.5136,-1 0,-0.55 0.8625,-1 1.9167,-1 1.0541,0 2.0666,-0.3375 2.25,-0.75 0.405,-0.91143 7.4688,-4.25 8.9922,-4.25 0.6,0 3.6223,-1.08462 6.7161,-2.41027 3.0937,-1.32565 10.35,-3.84493 16.125,-5.59841 5.775,-1.75348 11.238,-3.56675 12.14,-4.02949 3.0895,-1.58498 25.3555,-5.79239 36.86,-6.96512 6.325,-0.64474 13.6596,-1.58276 16.2992,-2.08448 2.6396,-0.50173 16.1396,-0.91036 30,-0.90807 20.8446,0.003 28.5262,0.42837 44.4384,2.4582 10.5807,1.34972 20.1137,2.92285 21.1843,3.49584 1.0706,0.57299 3.6046,1.0418 5.6311,1.0418 2.0264,0 6.4435,0.86856 9.8157,1.93012 3.3722,1.06157 8.1563,2.45674 10.6313,3.10037 18.1235,4.71312 49.0634,18.23707 50.8333,22.21951 0.1834,0.4125 0.7138,0.75 1.1788,0.75 1.4716,0 7.5806,6.3366 10.3181,10.70258 1.8842,3.00518 2.7008,5.77528 2.866,9.72234 0.2046,4.88953 -0.1002,5.86546 -2.6697,8.54742 -1.5954,1.66521 -3.311,3.02766 -3.8125,3.02766 -1.2136,0 -7.1037,2.51998 -12.9645,5.5467 -2.6128,1.34931 -5.362,2.4533 -6.1092,2.4533 -0.7473,0 -3.3612,1.76262 -5.8086,3.91693 -3.5466,3.12182 -4.6916,4.96424 -5.6408,9.07629 -0.655,2.83765 -1.1909,6.47503 -1.1909,8.08307 0,1.60804 -0.45,2.92371 -1,2.92371 -0.55,0 -1,1.43055 -1,3.179 0,1.74845 -0.4277,4.56095 -0.9504,6.25 -0.5227,1.68905 -1.9404,6.446 -3.1504,10.571 -1.21,4.125 -2.5823,7.9275 -3.0496,8.45 -0.4673,0.5225 -0.8496,2.345 -0.8496,4.05 0,1.705 -0.3983,3.5275 -0.885,4.05 -0.4868,0.5225 -2.3114,5.45 -4.0548,10.95 -1.7433,5.5 -3.7541,11.35 -4.4684,13 -0.7142,1.65 -2.5658,6.05807 -4.1146,9.7957 -1.5489,3.73764 -3.1898,7.0267 -3.6466,7.30902 -0.4568,0.28232 -0.8306,1.15459 -0.8306,1.93837 0,0.78378 -1.35,4.21196 -3,7.61819 -1.65,3.40623 -3,6.7884 -3,7.51593 0,0.72754 -0.3975,1.32279 -0.8834,1.32279 -0.4858,0 -1.172,0.7875 -1.5249,1.75 -0.8433,2.30062 -3.7395,7.6149 -4.4961,8.25 -0.3276,0.275 -1.4454,2.075 -2.4841,4 -1.4935,2.7678 -10.6025,16.63745 -22.1115,33.66764 -0.99,1.465 -3.3083,3.99457 -15.0531,16.4256 -9.3947,9.94353 -21.3966,20.76481 -27.4469,24.74692 -3.025,1.99096 -5.65,3.9664 -5.8333,4.38988 -0.1834,0.42348 -0.9709,0.76996 -1.75,0.76996 -0.7792,0 -1.4167,0.39873 -1.4167,0.88606 0,0.48733 -1.6875,1.66975 -3.75,2.6276 -2.0625,0.95785 -4.425,2.28501 -5.25,2.94925 -0.825,0.66423 -3.075,1.81877 -5,2.56562 -1.925,0.74686 -3.725,1.61269 -4,1.92407 -0.275,0.31138 -3.2,1.64494 -6.5,2.96347 -3.3,1.31854 -7.8,3.19837 -10,4.17741 -7.2219,3.21389 -21.8495,6.83933 -42,10.40967 -7.7842,1.37923 -44.4808,2.74 -51.5,1.90971 z m 54,-57.38583 c 9.4361,-2.07435 27.2545,-8.09553 32.9276,-11.12687 2.9852,-1.59509 5.7772,-2.90016 6.2045,-2.90016 0.4274,0 1.8361,-1.0125 3.1305,-2.25 1.2944,-1.2375 3.4109,-2.925 4.7033,-3.75 5.4309,-3.46683 21.4386,-18.87226 27.0341,-26.01695 1.375,-1.75568 2.9917,-3.71713 3.5926,-4.35879 0.601,-0.64165 2.5731,-3.85711 4.3824,-7.14545 1.8094,-3.28835 3.6429,-6.42993 4.0745,-6.98131 0.4315,-0.55137 1.7343,-3.47637 2.8951,-6.5 1.1608,-3.02362 2.5073,-6.3975 2.9923,-7.4975 2.4891,-5.64585 6.735,-22.53831 7.9985,-31.82236 3.6858,-27.08241 -3.6003,-66.0231 -14.4354,-77.15065 -0.9745,-1.00081 -4.9672,-3.02158 -9,-4.5551 -8.3101,-3.15997 -38.3043,-4.04941 -49.2815,-1.46137 -7.4684,1.76079 -13.731,4.77671 -14.5952,7.02867 -1.3408,3.49417 -0.3856,5.39806 6.0166,11.99217 12.7946,13.17804 20.3601,28.65527 20.3601,41.65213 0,4.3954 -1.538,14.83412 -3.1407,21.31651 -2.8339,11.46215 -16.4695,31.31616 -21.6093,31.46404 -0.6875,0.0198 -1.25,0.71096 -1.25,1.53596 0,0.825 -0.6375,1.5 -1.4167,1.5 -0.7791,0 -1.5666,0.3375 -1.75,0.75 -0.5216,1.17362 -13.8878,7.10078 -18.3333,8.12982 -8.0581,1.86526 -14.7182,2.16612 -23.2605,1.05076 -13.979,-1.82521 -26.4905,-8.0919 -36.6661,-18.36502 -6.5542,-6.61707 -7.3706,-7.73139 -10.6717,-14.56556 -4.3143,-8.93203 -4.5068,-9.70012 -6.8794,-27.45589 -2.3329,-17.45772 -3.0548,-18.26092 -12.5223,-13.9332 -1.65,0.75424 -5.25,2.72343 -8,4.37599 -2.75,1.65255 -5.675,3.31122 -6.5,3.68593 -0.825,0.37471 -1.725,0.94038 -2,1.25704 -0.275,0.31667 -2.525,1.91856 -5,3.55977 -5.0978,3.38046 -9.4258,6.70207 -18.5807,14.26036 -3.4975,2.8875 -6.7101,5.27785 -7.1392,5.3119 -0.429,0.034 -2.29737,2.13961 -4.15181,4.67904 -3.32012,4.54652 -3.36138,4.73109 -2.6968,12.065 0.73459,8.10642 3.22576,19.12968 4.6654,20.64406 0.49671,0.5225 0.90311,1.76 0.90311,2.75 0,0.99 0.45,1.8 1,1.8 0.55,0 1,0.42589 1,0.94642 0,1.71287 7.1954,13.2641 10.6316,17.06753 1.8526,2.05065 3.3684,4.23641 3.3684,4.85725 0,0.62084 0.675,1.1288 1.5,1.1288 0.825,0 1.5,0.39706 1.5,0.88235 0,1.34685 7.7883,8.84203 14.5,13.95423 3.3,2.51357 6.225,4.82286 6.5,5.13175 0.7205,0.80934 15.9492,10.48889 19.5,12.39448 8.1881,4.39424 30.5496,10.34323 45,11.97167 7.3438,0.82759 36.9279,-0.0825 42.5,-1.30745 z M 716.2249,713.75 C 711.67533,711.24698 704,704.53049 704,703.05229 c 0,-0.5241 -0.64173,-1.31277 -1.42606,-1.7526 C 701.25546,700.56033 696,693.49001 696,692.45559 696,692.20502 695.30857,691.2125 694.46348,690.25 690.47176,685.70367 688,682.08451 688,680.78615 c 0,-0.78383 -2.50338,-4.07248 -5.56306,-7.30811 -3.05969,-3.23563 -6.30671,-7.14186 -7.21561,-8.6805 C 674.31243,663.25889 673.21581,662 672.78439,662 672.35298,662 672,661.58823 672,661.08495 c 0,-0.93076 -2.11402,-3.63701 -7.5,-9.60108 -1.65,-1.82709 -4.11363,-4.82091 -5.47474,-6.65293 -1.36111,-1.83202 -4.39861,-5.30265 -6.75,-7.71252 C 649.92387,634.70855 648,632.53891 648,632.29699 c 0,-0.24191 -0.5625,-1.00482 -1.25,-1.69535 -0.6875,-0.69053 -2.6138,-2.79588 -4.28067,-4.67857 -1.66687,-1.88269 -4.70437,-4.68347 -6.75,-6.22396 -2.04563,-1.54049 -3.71933,-3.45299 -3.71933,-4.25 0,-0.79701 -0.3375,-1.45164 -0.75,-1.45473 -0.4125,-0.003 -3.26246,-2.3656 -6.33325,-5.25 -10.11736,-9.50329 -17.44782,-16.19553 -21.46114,-19.59264 -2.17559,-1.84155 -7.00976,-6.08777 -10.74261,-9.43606 -3.73285,-3.34828 -7.84443,-6.79156 -9.13683,-7.65173 -6.54944,-4.35903 -15.30196,-10.67636 -17.07617,-12.32512 -1.1,-1.02221 -6.05,-4.61642 -11,-7.98713 -4.95,-3.3707 -9.225,-6.41408 -9.5,-6.76307 -0.275,-0.34898 -1.175,-0.94704 -2,-1.32901 -0.825,-0.38198 -5.55,-3.37997 -10.5,-6.6622 -4.95,-3.28223 -11.69103,-7.35284 -14.98006,-9.04579 -3.28903,-1.69295 -6.21403,-3.38713 -6.5,-3.76486 -0.49094,-0.64846 -12.91007,-7.3926 -17.76214,-9.64562 -1.23321,-0.57263 -2.24571,-1.37865 -2.25,-1.79115 C 492.00351,512.3375 491.1,512 490,512 c -1.1,0 -2,-0.40986 -2,-0.91079 0,-0.50094 -2.1375,-1.88318 -4.75,-3.07165 -2.6125,-1.18847 -5.53139,-2.57861 -6.48643,-3.0892 C 475.80853,504.41776 474.34603,504 473.51357,504 472.68111,504 472,503.6404 472,503.20089 c 0,-0.43951 -1.6875,-1.40293 -3.75,-2.14093 -2.0625,-0.738 -3.975,-1.6159 -4.25,-1.95089 C 463.03014,497.92765 459.00851,496 457.51357,496 456.68111,496 456,495.55 456,495 c 0,-0.55 -0.65479,-1 -1.4551,-1 -0.8003,0 -4.5128,-1.39884 -8.25,-3.10853 -7.29964,-3.33944 -7.94074,-3.61623 -16.2949,-7.03523 -3.025,-1.238 -5.725,-2.49961 -6,-2.80357 -0.275,-0.30397 -2.075,-1.15627 -4,-1.89401 -10.07591,-3.8615 -20.69031,-7.73016 -31,-11.29866 -6.325,-2.18927 -12.4,-4.38245 -13.5,-4.87374 -1.1,-0.49128 -6.275,-2.27532 -11.5,-3.96453 -5.225,-1.68921 -10.85,-3.54985 -12.5,-4.13475 -1.65,-0.5849 -4.8,-1.48979 -7,-2.01087 -5.58752,-1.32343 -17.6012,-4.90328 -20,-5.95963 -1.1,-0.4844 -3.8,-1.29507 -6,-1.80149 -2.2,-0.50642 -8.275,-2.06304 -13.5,-3.45916 -21.06403,-5.62828 -50.37604,-12.47994 -63,-14.72621 -3.575,-0.63613 -7.53367,-1.55552 -8.79705,-2.04311 C 231.93957,424.39893 229.54748,424 227.88721,424 c -1.66028,0 -3.85353,-0.44679 -4.87389,-0.99287 -1.02036,-0.54608 -4.70327,-1.43724 -8.18426,-1.98036 -3.48098,-0.54313 -10.15406,-1.66186 -14.82906,-2.48609 -17.77163,-3.13323 -20.95474,-3.65345 -37.5,-6.12864 -9.35,-1.39878 -22.175,-3.14235 -28.5,-3.87461 -34.174863,-3.95651 -47.689285,-6.08386 -49.378223,-7.7728 -2.348868,-2.34886 -3.003128,-8.12171 -1.350647,-11.91741 0.801478,-1.84097 2.267214,-5.37222 3.257191,-7.84722 2.903738,-7.25952 7.713673,-17.29037 9.664815,-20.15544 0.99461,-1.46049 3.902494,-6.63549 6.461964,-11.5 2.55946,-4.86451 5.64258,-10.19456 6.85136,-11.84456 1.20877,-1.65 2.4752,-3.7875 2.81427,-4.75 0.33908,-0.9625 1.08062,-1.75 1.64789,-1.75 0.56726,0 1.03138,-0.48214 1.03138,-1.07143 0,-0.58928 0.5625,-1.69867 1.25,-2.46529 3.1105,-3.46851 3.75,-4.47824 3.75,-5.92107 0,-0.84822 0.41968,-1.54221 0.93261,-1.54221 0.51294,0 1.19508,-0.82695 1.51586,-1.83766 0.32079,-1.01071 1.97272,-3.37321 3.67095,-5.25 1.69824,-1.87679 4.23932,-4.98734 5.64684,-6.91234 1.40753,-1.925 6.87342,-7.6621 12.14644,-12.74911 14.35188,-13.84563 23.35226,-17.80558 36.88217,-16.22727 42.74733,4.98662 66.91718,8.97306 97.28746,16.04605 6.92029,1.61168 13.46779,2.93033 14.55,2.93033 1.08222,0 2.39517,0.36787 2.91767,0.81749 0.5225,0.44961 3.425,1.36842 6.45,2.04179 6.76353,1.50557 12.84839,3.12348 15.5,4.12131 4.31355,1.62323 23.49812,7.01941 24.95551,7.01941 0.84947,0 1.54449,0.39893 1.54449,0.8865 0,0.48758 1.2375,1.12554 2.75,1.41769 4.96346,0.95874 15.40018,4.28942 20.75,6.62196 1.1,0.47961 3.575,1.43848 5.5,2.13084 4.76366,1.71333 12.1227,4.8035 14.23643,5.97808 0.95504,0.53071 2.25662,0.96493 2.89241,0.96493 1.5306,0 18.81717,6.80698 21.37116,8.41538 1.1,0.69274 5.0375,2.34115 8.75,3.66313 3.7125,1.32198 6.75,2.74513 6.75,3.16255 0,0.41742 0.63336,0.75894 1.40746,0.75894 0.77411,0 4.86575,1.8 9.09254,4 4.22679,2.2 8.31843,4 9.09254,4 0.7741,0 1.40746,0.45 1.40746,1 0,0.55 0.6199,1 1.37756,1 0.75765,0 1.89868,0.62793 2.53562,1.39539 0.63694,0.76747 2.71704,1.68786 4.62245,2.04532 1.9054,0.35745 3.46437,1.07953 3.46437,1.6046 0,0.52508 0.66824,0.95469 1.48498,0.95469 0.81673,0 3.679,1.35 6.3606,3 2.68159,1.65 5.27585,3.01252 5.76502,3.02782 0.48917,0.0153 2.66597,1.37194 4.83732,3.01475 2.17136,1.64281 5.65886,3.44764 7.75,4.01073 2.09115,0.56308 3.80208,1.45644 3.80208,1.98524 0,0.5288 0.46103,0.96146 1.02451,0.96146 0.56348,0 3.87461,1.8 7.35806,4 3.48346,2.2 6.70592,4 7.16104,4 0.45512,0 1.75649,0.83463 2.89194,1.85473 1.13545,1.0201 4.08945,2.9326 6.56445,4.25 2.475,1.3174 5.09432,2.95745 5.82072,3.64456 0.72639,0.68711 3.42639,2.47438 6,3.97172 2.5736,1.49734 5.12928,3.09934 5.67928,3.56001 0.9128,0.76453 3.68271,2.5965 9,5.9524 1.1,0.69425 4.29157,2.95074 7.09237,5.01442 2.80081,2.06369 5.4073,3.75216 5.79221,3.75216 0.38491,0 1.24334,0.45834 1.90763,1.01854 2.6172,2.20709 5.62132,4.55149 7.66467,5.98146 1.17888,0.825 6.28335,4.53776 11.34327,8.25058 9.8244,7.20886 15.86628,12.10761 26.51536,21.49864 2.02647,1.78707 4.20949,3.24957 4.85116,3.25 0.64166,4.3e-4 1.31666,0.33828 1.5,0.75078 0.18333,0.4125 3.70833,3.66917 7.83333,7.23706 4.125,3.56788 9.075,7.95147 11,9.74132 1.925,1.78985 3.8375,3.25818 4.25,3.26295 0.4125,0.005 0.75307,0.57117 0.75683,1.25867 0.004,0.6875 1.62359,2.35122 3.59963,3.69717 C 641.41175,485.90134 680,525.20716 680,527.16623 680,527.6248 680.675,528 681.5,528 c 0.825,0 1.5,0.35625 1.5,0.79166 0,0.43542 1.4625,2.35698 3.25,4.27014 1.7875,1.91316 6.16131,6.95691 9.71959,11.20833 3.55827,4.25143 6.82077,7.72987 7.25,7.72987 C 703.64881,552 704,552.44486 704,552.98857 704,555.3338 716.10063,568 718.34114,568 c 0.91237,0 1.65886,0.45 1.65886,1 0,0.55 1.8,1 4,1 2.2,0 4,-0.34015 4,-0.75589 0,-0.41574 1.2375,-1.3254 2.75,-2.02147 4.1047,-1.88903 6.19121,-3.92796 13.01948,-12.72264 3.4162,-4.4 7.78832,-9.575 9.71582,-11.5 1.9275,-1.925 3.50683,-3.82566 3.50962,-4.22368 0.003,-0.39803 1.91758,-2.71321 4.25508,-5.14485 2.3375,-2.43164 6.05,-6.56343 8.25,-9.18176 6.96997,-8.2953 47.47288,-47.86994 55.01093,-53.75014 1.55083,-1.20976 5.13471,-4.32366 7.96417,-6.91977 8.59537,-7.88651 10.84807,-9.78686 15.32442,-12.92747 2.36474,-1.65911 5.68868,-4.3745 7.38653,-6.0342 1.69785,-1.6597 5.38807,-4.54685 8.20048,-6.41588 7.11054,-4.72541 9.66844,-6.58908 12.21836,-8.90225 3.05733,-2.77346 4.35987,-3.73537 8.47095,-6.25567 1.96671,-1.2057 4.72104,-3.25351 6.12074,-4.55071 1.39969,-1.29719 3.88432,-3.22143 5.5214,-4.27608 5.51728,-3.55438 18.77379,-12.39035 19.78202,-13.18547 0.55,-0.43375 3.10568,-2.01372 5.67928,-3.51106 2.57361,-1.49734 5.27361,-3.30979 6,-4.02767 0.7264,-0.71789 1.99572,-1.63522 2.82072,-2.03852 0.825,-0.40329 2.4,-1.27815 3.5,-1.94412 1.1,-0.66597 6.95,-4.20688 13,-7.86869 6.05,-3.66181 13.925,-8.18609 17.5,-10.05395 3.575,-1.86786 9.06745,-4.81796 12.20544,-6.55578 3.13799,-1.73782 6.51299,-3.60344 7.5,-4.14581 0.98701,-0.54238 5.05706,-2.4448 9.04456,-4.22761 3.9875,-1.78281 7.25,-3.60538 7.25,-4.05016 0,-0.44479 0.5853,-0.8087 1.3006,-0.8087 1.8398,0 6.6823,-2.35194 6.6916,-3.25 0,-0.4125 0.6691,-0.75 1.4774,-0.75 0.8083,0 3.0719,-0.9 5.0304,-2 1.9585,-1.1 4.2221,-2 5.0304,-2 0.8083,0 1.4696,-0.45 1.4696,-1 0,-0.55 0.7262,-1 1.6138,-1 0.8877,0 3.2502,-0.85631 5.25,-1.90292 6.849,-3.58427 16.9208,-7.88247 26.1362,-11.15374 5.5831,-1.98188 7.2725,-2.63962 11.1511,-4.34138 C 1067.1593,323.72088 1069.3412,323 1070,323 c 0.6588,0 2.6157,-0.61176 4.3489,-1.35947 6.1231,-2.64167 8.5706,-3.54902 17.813,-6.60375 5.136,-1.69749 10.6881,-3.55577 12.3381,-4.1295 1.65,-0.57374 6.15,-1.9539 10,-3.06703 3.85,-1.11314 7.7814,-2.43256 8.7364,-2.93206 0.9551,-0.49951 2.882,-0.90819 4.2821,-0.90819 1.4002,0 3.9938,-0.60403 5.7636,-1.34229 1.7699,-0.73826 5.6929,-1.90066 8.7179,-2.5831 3.025,-0.68245 7.525,-1.82321 10,-2.53502 11.3744,-3.27127 19.133,-5.0538 45.5,-10.45358 16.0098,-3.27868 35.1778,-6.08967 63,-9.23894 21.1998,-2.39966 28.7918,0.46261 45.75,17.24836 5.9125,5.85235 10.7572,11.03753 10.766,11.52261 0.01,0.48508 1.3915,2.44291 3.0727,4.35073 1.6812,1.90782 3.796,4.72032 4.6996,6.25 0.9036,1.52968 1.9959,2.78123 2.4273,2.78123 0.4314,0 0.7844,0.48894 0.7844,1.08652 0,1.21513 6.0792,10.22646 7.25,10.74681 0.4125,0.18334 0.75,1.15834 0.75,2.16667 0,1.00833 0.3567,1.98333 0.7926,2.16667 0.4359,0.18333 1.8226,2.02083 3.0816,4.08333 1.2589,2.0625 2.7022,3.75 3.2074,3.75 0.5051,0 0.9184,0.68111 0.9184,1.51357 0,1.46968 1.9042,5.47561 3.0832,6.48643 0.3208,0.275 1.8165,2.975 3.3238,6 1.5073,3.025 3.8058,7.525 5.1077,10 1.302,2.475 2.3938,5.2875 2.4263,6.25 0.032,0.9625 0.509,1.75 1.059,1.75 0.55,0 1,0.68111 1,1.51357 0,0.83246 0.4138,2.29496 0.9196,3.25 3.7931,7.16282 5.0804,10.8756 5.0804,14.65328 0,4.01753 -0.2792,4.48775 -3.6003,6.0637 -1.9801,0.93964 -7.2676,2.10187 -11.75,2.58273 -4.4823,0.48087 -11.7497,1.33758 -16.1497,1.90381 -4.4,0.56623 -13.4,1.67881 -20,2.47241 -14.0829,1.69336 -55.0031,8.0129 -61.5,9.49781 -2.475,0.56567 -8.55,1.69707 -13.5,2.51423 -14.7705,2.43835 -40.5627,7.50394 -51.5,10.11464 -14.0341,3.34988 -39.657,9.65441 -42.5,10.45716 -1.65,0.46589 -5.925,1.61047 -9.5,2.54352 -13.77,3.59388 -39.2033,11.27655 -53.5,16.16086 -5.5,1.87901 -12.025,4.00952 -14.5,4.73446 -4.8696,1.42633 -20.2524,6.93861 -23.5,8.421 -5.7418,2.62087 -9.3756,4.11682 -10,4.11682 -0.3838,0 -2.1157,0.61517 -3.8489,1.36704 -1.7331,0.75187 -7.6511,3.28721 -13.1511,5.63408 -5.5,2.34687 -11.8,5.04614 -14,5.99838 -2.2,0.95224 -5.6875,2.3323 -7.75,3.06681 -2.0625,0.73451 -3.75,1.69507 -3.75,2.13458 0,0.43951 -0.6552,0.79911 -1.45599,0.79911 -0.8008,0 -3.7456,1.35 -6.54401,3 -2.79841,1.65 -5.40571,2.99266 -5.79401,2.98369 -1.16504,-0.0269 -17.67915,8.45593 -18.03932,9.26631 -0.18334,0.4125 -0.94485,0.75 -1.69225,0.75 -0.7474,0 -4.4224,1.84092 -8.16667,4.09093 -9.64456,5.79564 -9.3871,5.65211 -13.9287,7.76513 -2.26652,1.05452 -4.43058,2.4183 -4.80902,3.03062 C 931.1916,527.49901 930.08696,528 929.1153,528 c -0.97167,0 -2.78779,1.08693 -4.03582,2.41539 -1.24802,1.32847 -3.35147,2.68704 -4.67431,3.01905 C 919.08233,533.76646 918,534.47953 918,535.01905 918,535.55857 917.52813,536 916.9514,536 c -0.57673,0 -3.75855,1.8 -7.07071,4 -3.31217,2.2 -6.20617,4 -6.43112,4 -0.22495,0 -2.78063,1.79806 -5.67928,3.9957 -2.89866,2.19763 -5.62824,3.99763 -6.06574,4 -0.4375,0.002 -1.84346,1.0168 -3.12434,2.2543 -3.5234,3.40405 -6.51791,5.74986 -7.34164,5.75122 -0.40621,6.7e-4 -1.93826,1.01317 -3.40455,2.25 -1.46629,1.23683 -3.60894,3.03628 -4.76143,3.99878 -1.1525,0.9625 -2.54031,1.75 -3.08402,1.75 -0.54371,0 -0.98857,0.43844 -0.98857,0.97432 0,0.53588 -1.34216,1.66838 -2.98257,2.51667 -1.64042,0.84829 -4.32739,2.77235 -5.97106,4.27568 -3.4083,3.11731 -9.69828,8.52262 -15.54637,13.35983 -2.2,1.81972 -5.72214,5.01069 -7.82698,7.09104 -2.10483,2.08035 -3.98206,3.78246 -4.1716,3.78246 -0.33932,0 -14.05263,12.84009 -16.00142,14.9825 -0.55,0.60464 -4.375,4.57578 -8.5,8.82476 -6.71812,6.92004 -14.03269,15.06834 -19.92196,22.19274 -6.40258,7.74535 -8.75507,10.51635 -10.32804,12.16538 -0.9625,1.00904 -1.75,2.08007 -1.75,2.38007 0,0.3 -1.125,1.67046 -2.5,3.04546 -1.375,1.375 -2.50719,2.81704 -2.51597,3.20454 -0.009,0.3875 -1.3915,2.2655 -3.0727,4.17332 -1.68119,1.90782 -3.79603,4.72032 -4.69963,6.25 -0.9036,1.52968 -1.99589,2.78123 -2.42731,2.78123 -0.43141,0 -0.79716,0.5625 -0.81277,1.25 -0.0156,0.6875 -1.81561,3.25869 -4,5.71376 -2.18439,2.45508 -3.97162,5.04258 -3.97162,5.75 0,0.70743 -0.34767,1.28624 -0.7726,1.28624 -0.42492,0 -1.6323,1.59638 -2.68306,3.54752 -2.45511,4.55887 -13.8622,15.14062 -18.3371,17.01035 -4.89154,2.04382 -9.25754,1.79156 -13.98234,-0.80787 z M 716.5,508.3329 c -3.02372,-1.59958 -11.50852,-9.75301 -13.12709,-12.61442 C 699.9382,489.64639 651.58138,440 649.10173,440 648.49578,440 648,439.58462 648,439.07692 648,438.20425 642.27394,432 641.46853,432 c -0.20769,0 -1.44397,-1.0125 -2.74728,-2.25 -1.30331,-1.2375 -4.75611,-4.275 -7.67288,-6.75 -2.91677,-2.475 -6.25838,-5.40979 -7.4258,-6.52175 C 622.45516,415.36629 619.925,413.35107 618,412 c -1.925,-1.35107 -4.625,-3.48917 -6,-4.75133 -4.79309,-4.39975 -5.53495,-4.99194 -11,-8.78076 -3.025,-2.09717 -5.96037,-4.29789 -6.52304,-4.89048 C 593.91429,392.98484 592.7252,392.05 591.83455,391.5 586.70469,388.3322 572.81864,378.4864 571.87188,377.34562 571.25766,376.60553 570.13521,376 569.37756,376 568.6199,376 568,375.58032 568,375.06739 c 0,-0.51294 -0.7875,-1.18297 -1.75,-1.48897 -0.9625,-0.30599 -2.87669,-1.57381 -4.25376,-2.81738 -1.37706,-1.24357 -4.52706,-3.3625 -7,-4.70872 -2.47293,-1.34622 -8.54624,-4.9782 -13.49624,-8.07105 -4.95,-3.09285 -11.7,-7.13668 -15,-8.98629 -3.3,-1.8496 -6.225,-3.63668 -6.5,-3.97129 -0.275,-0.3346 -3.49135,-2.02012 -7.14745,-3.7456 -3.6561,-1.72547 -6.94516,-3.61892 -7.30902,-4.20766 C 505.17967,336.48169 504.04602,336 503.02432,336 c -1.02171,0 -2.00765,-0.33751 -2.19099,-0.75003 C 500.52549,334.5573 487.62906,328 486.57462,328 c -0.25711,0 -3.07908,-1.51872 -6.27104,-3.37493 -3.19197,-1.85622 -6.92858,-3.69639 -8.30358,-4.08928 -4.24398,-1.21265 -8,-2.98733 -8,-3.7799 C 464,316.34015 463.12656,316 462.05902,316 c -1.06754,0 -2.2191,-0.45 -2.55902,-1 -0.33992,-0.55 -1.67898,-1 -2.97568,-1 -1.29671,0 -2.50765,-0.3375 -2.69099,-0.75 -0.34606,-0.77864 -4.45432,-2.84133 -11.33333,-5.69028 -2.2,-0.91113 -4.78139,-2.08481 -5.73643,-2.60816 C 435.80853,304.4282 434.34603,304 433.51357,304 432.68111,304 432,303.62581 432,303.16848 c 0,-0.45734 -1.9125,-1.30983 -4.25,-1.89441 C 423.1843,300.13222 416.81561,297.81561 416,297 c -0.72236,-0.72236 -4.32778,-2.9471 -5.5,-3.3938 -2.3695,-0.90294 -16.21808,-4.86225 -18.5,-5.28915 -1.375,-0.25724 -3.4,-0.87162 -4.5,-1.3653 -3.42289,-1.5362 -10.82153,-4.04514 -14.95795,-5.07237 -2.17687,-0.54059 -5.32687,-1.59896 -7,-2.35192 -4.85289,-2.18396 -20.6486,-6.70544 -25.29205,-7.23978 C 337.9125,272.01869 336,271.39392 336,270.89931 336,270.40469 335.31874,270 334.4861,270 c -0.83265,0 -5.67015,-1.10956 -10.75,-2.46569 -15.51787,-4.14268 -29.9292,-7.75666 -36.2361,-9.08705 -3.3,-0.69611 -8.475,-1.91442 -11.5,-2.70735 -3.025,-0.79294 -7.975,-1.94039 -11,-2.54988 -3.025,-0.6095 -9.775,-2.01054 -15,-3.11344 -5.225,-1.10289 -15.575,-3.14676 -23,-4.54193 -27.77452,-5.21887 -30,-6.06197 -30,-11.36519 0,-7.38218 28.64211,-41.42986 45,-53.49277 3.025,-2.23075 7.075,-5.46756 9,-7.19291 1.925,-1.72536 6.67875,-5.01606 10.56388,-7.31268 3.88514,-2.29662 7.93514,-4.9859 9,-5.97619 1.06487,-0.99029 4.63612,-2.89755 7.93612,-4.23835 3.3,-1.3408 6.225,-2.70774 6.5,-3.03764 0.86778,-1.04102 16.22514,-6.08469 23,-7.55367 15.95772,-3.46008 26.94434,-3.02414 58.5,2.32122 8.25,1.3975 15.9,2.67993 17,2.84984 5.30344,0.81919 37.8888,9.2103 41,10.55799 1.1,0.47649 5.57634,1.82687 9.94742,3.00084 4.37108,1.17397 8.64608,2.47996 9.5,2.90222 0.85392,0.42225 4.02758,1.64839 7.05258,2.72475 3.025,1.07637 7.75,2.76352 10.5,3.74922 2.75,0.9857 6.2375,2.00896 7.75,2.27392 1.5125,0.26496 2.75,0.88066 2.75,1.36824 0,0.48757 0.81,0.8865 1.8,0.8865 0.99,0 2.2275,0.37562 2.75,0.83472 0.5225,0.45909 3.2,1.63769 5.95,2.61911 5.90438,2.10715 9.15115,3.55319 24.63456,10.97173 6.39901,3.06594 12.36151,5.57444 13.25,5.57444 0.88849,0 1.61544,0.37396 1.61544,0.83102 0,0.45706 1.2375,1.46884 2.75,2.24841 1.5125,0.77956 2.975,1.6431 3.25,1.91898 0.47546,0.47698 7.63048,3.969 13,6.34469 1.375,0.60835 5.73101,3.03002 9.68003,5.3815 3.94902,2.35147 7.49254,4.2754 7.8745,4.2754 1.7805,0 44.30211,27.42013 46.44547,29.95044 0.275,0.32465 1.67088,1.10361 3.10194,1.73102 1.43107,0.62741 5.03582,3.09325 8.01055,5.47964 2.97473,2.3864 7.76549,5.9139 10.64613,7.8389 2.88063,1.925 5.23838,3.8375 5.23945,4.25 10e-4,0.4125 0.65457,0.75 1.45224,0.75 0.79767,0 1.81017,0.59338 2.25,1.31862 0.43983,0.72524 3.86322,3.61915 7.60754,6.4309 3.74432,2.81175 9.53649,7.50587 12.8715,10.43138 3.335,2.9255 6.77894,5.73211 7.65319,6.2369 2.10219,1.21379 7.22647,5.77666 14.41107,12.8322 3.22035,3.1625 6.17045,5.75389 6.55578,5.75865 0.38534,0.005 3.72455,3.04226 7.42049,6.75 C 718.10527,344.72676 717.2007,344 723.63715,344 c 4.35235,0 6.11728,-0.57299 9.83361,-3.1925 2.49108,-1.75588 4.52924,-3.53385 4.52924,-3.95105 0,-2.11819 39.30071,-38.93525 47.65406,-44.6425 1.84026,-1.25733 3.34594,-2.60998 3.34594,-3.00589 0,-0.39591 1.2375,-1.27445 2.75,-1.95231 1.5125,-0.67786 5.19522,-3.37521 8.18382,-5.99411 2.9886,-2.6189 7.58471,-6.64624 10.21358,-8.94964 2.62886,-2.3034 7.38364,-6.00708 10.56617,-8.2304 5.64557,-3.944 18.73488,-13.23926 20.84101,-14.80007 1.83277,-1.35823 4.89525,-3.27054 6.30451,-3.93675 0.7475,-0.35336 2.40004,-1.6072 3.67232,-2.78631 1.27228,-1.17911 4.59819,-3.21404 7.39091,-4.52209 C 861.71504,236.72834 864,235.28505 864,234.82906 864,234.37308 864.675,234 865.5,234 c 0.825,0 1.5,-0.45 1.5,-1 0,-0.55 0.6375,-1 1.41667,-1 0.77916,0 1.56666,-0.39477 1.75,-0.87727 C 870.56247,230.08104 893.76781,216 895.08869,216 895.58991,216 896,215.6404 896,215.20089 c 0,-0.43951 1.6875,-1.40293 3.75,-2.14093 2.0625,-0.738 3.975,-1.6159 4.25,-1.95089 0.63806,-0.77724 2.80852,-1.97674 13.12448,-7.25317 4.60654,-2.35617 8.60052,-4.55844 8.87552,-4.89395 0.275,-0.33551 2.6375,-1.19768 5.25,-1.91594 2.6125,-0.71826 4.75,-1.64061 4.75,-2.04965 C 936,194.20113 948.44614,188 950.04223,188 c 0.52384,0 3.76613,-1.32445 7.2051,-2.94322 3.43897,-1.61876 10.02878,-4.3309 14.64403,-6.02696 4.61525,-1.69607 9.56525,-3.71977 11,-4.49713 1.43475,-0.77735 5.75864,-2.39444 9.60864,-3.59353 3.85,-1.19908 8.35,-2.7444 10,-3.43404 1.65,-0.68963 5.025,-1.78805 7.5,-2.44094 2.475,-0.65289 9.45,-2.69636 15.5,-4.54104 6.05,-1.84469 15.95,-4.52652 22,-5.95962 6.05,-1.4331 12.575,-3.03738 14.5,-3.56506 3.1274,-0.85728 19.8642,-3.5497 43.8831,-7.05941 14.5875,-2.13155 34.2729,0.12564 48.8074,5.59644 11.3226,4.26183 27.533,12.82782 33.0173,17.44719 0.6643,0.55953 1.5919,1.01732 2.0614,1.01732 0.4695,0 1.8228,0.90292 3.0074,2.00649 1.1845,1.10356 3.8355,3.14778 5.891,4.5427 7.7741,5.27562 33.3324,29.96086 33.3324,32.19374 0,0.27033 1.8047,2.35127 4.0105,4.62429 5.1554,5.31256 11.9895,14.61135 11.9895,16.31339 0,0.72566 0.4296,1.31939 0.9547,1.31939 1.4245,0 2.3853,6.56997 1.2559,8.58809 -1.0826,1.93456 -7.2944,3.76967 -20.2106,5.97067 -4.675,0.79665 -11.2,2.08968 -14.5,2.87339 -3.3,0.78371 -9.825,2.18076 -14.5,3.10455 -24.6097,4.86291 -84.1984,19.25713 -91.5,22.1027 -2.2,0.85737 -4.8496,1.72537 -5.888,1.92889 -1.0384,0.20351 -4.4134,1.11507 -7.5,2.02567 -3.0866,0.91061 -7.862,2.23667 -10.612,2.9468 -4.4756,1.15573 -23.244,7.59811 -43.2312,14.8394 -3.9772,1.44091 -7.9147,2.61984 -8.75,2.61984 -0.8353,0 -1.5188,0.45 -1.5188,1 0,0.55 -0.615,1 -1.3666,1 -1.1794,0 -3.9978,0.99815 -14.1334,5.00536 -1.1,0.43489 -3.8,1.54204 -6,2.46031 -2.2,0.91828 -4.9,2.0214 -6,2.45138 -1.1,0.42999 -4.925,2.19973 -8.5,3.93276 -3.575,1.73303 -6.90515,3.15079 -7.40033,3.15058 -1.00509,-4.4e-4 -9.00062,3.66134 -18.09967,8.28923 -3.3,1.67842 -6.7875,3.42488 -7.75,3.88103 -0.9625,0.45614 -2.66068,1.28983 -3.77373,1.85265 -1.11306,0.56281 -6.62556,3.32826 -12.25,6.14545 -5.62445,2.81718 -10.45127,5.3942 -10.72627,5.7267 C 935.02338,342.07628 931.0041,344 929.51357,344 928.68111,344 928,344.36732 928,344.81627 c 0,0.44894 -2.93377,2.33617 -6.51949,4.19383 -3.58572,1.85766 -7.39191,4.19034 -8.45819,5.18373 C 911.95604,355.18722 910.78295,356 910.41545,356 909.74147,356 892.92861,366.02927 892,366.98526 890.63314,368.39242 881.81637,374 880.97076,374 880.43684,374 880,374.45 880,375 c 0,0.55 -0.675,1 -1.5,1 -0.825,0 -1.5,0.41968 -1.5,0.93261 0,0.51294 -0.99151,1.24731 -2.20336,1.63193 -1.21185,0.38463 -2.72699,1.20245 -3.36698,1.81739 -2.50547,2.40739 -6.06584,5.20355 -8.93011,7.01329 -4.56859,2.88661 -17.869,12.75301 -18.99955,14.09409 -0.55,0.65243 -1.50093,1.37173 -2.11317,1.59846 -0.61224,0.22673 -2.86224,1.88851 -5,3.69286 -2.13776,1.80435 -6.81183,5.56627 -10.38683,8.35983 -3.575,2.79356 -9.26579,7.72977 -12.64621,10.96937 -3.38041,3.23959 -6.44985,5.89017 -6.82097,5.89017 -0.37112,0 -3.48093,2.8125 -6.91068,6.25 -3.42976,3.4375 -12.06032,11.91261 -19.17903,18.83358 -11.8003,11.47251 -19.41103,19.74293 -20.27644,22.03397 -0.18334,0.48535 -0.86328,0.88245 -1.51098,0.88245 -0.6477,0 -2.2977,1.3986 -3.66667,3.108 -1.36896,1.7094 -5.52652,6.66935 -9.23902,11.02211 -3.7125,4.35275 -6.75,8.35415 -6.75,8.892 0,0.53784 -0.6375,0.97789 -1.41667,0.97789 -0.77916,0 -1.56666,0.35667 -1.75,0.79259 -0.18333,0.43593 -1.96145,1.78593 -3.95136,3 -4.30871,2.6288 -10.99039,2.86349 -15.38197,0.54031 z m 1.25,-218.02223 c -0.9625,-0.25152 -1.75,-0.87432 -1.75,-1.38399 0,-0.50968 -0.5625,-0.92959 -1.25,-0.93315 -0.6875,-0.004 -3.77593,-2.36605 -6.86318,-5.25 -3.08725,-2.88394 -7.36225,-6.68295 -9.5,-8.44225 -2.13775,-1.7593 -6.41941,-5.5843 -9.51479,-8.5 -3.09539,-2.9157 -7.72806,-6.87628 -10.29484,-8.80128 -2.56677,-1.925 -6.1851,-4.85 -8.04074,-6.5 -4.74092,-4.21555 -6.6697,-5.75963 -9.53685,-7.63469 -1.37478,-0.89908 -3.6246,-2.62622 -4.9996,-3.83809 -1.375,-1.21187 -3.7375,-2.93578 -5.25,-3.83092 C 649.2375,234.30117 648,233.21581 648,232.78439 648,232.35298 647.37314,232 646.60699,232 c -0.76616,0 -1.65203,-0.675 -1.96862,-1.5 -0.31658,-0.825 -1.18053,-1.5 -1.91989,-1.5 -0.73937,0 -2.66599,-1.38127 -4.28139,-3.06948 -1.6154,-1.68821 -4.33882,-3.73565 -6.05205,-4.54986 -1.71322,-0.81421 -3.96322,-2.25254 -5,-3.19629 -1.03677,-0.94375 -4.36004,-3.27568 -7.38504,-5.18207 -3.025,-1.90638 -5.65,-3.81179 -5.83333,-4.23423 C 613.98333,208.34563 613.19583,208 612.41667,208 611.6375,208 611,207.55 611,207 c 0,-0.55 -0.675,-1 -1.5,-1 -0.825,0 -1.5,-0.39541 -1.5,-0.87868 0,-0.48327 -1.35,-1.43787 -3,-2.12132 -1.65,-0.68345 -3,-1.63805 -3,-2.12132 C 602,200.39541 601.55676,200 601.01502,200 600.00894,200 589.90595,194.10061 589,192.98413 c -0.275,-0.33891 -3.2,-2.13177 -6.5,-3.98413 -3.3,-1.85236 -6.225,-3.64512 -6.5,-3.98391 -0.275,-0.33878 -2.975,-1.83184 -6,-3.3179 -3.025,-1.48606 -9.55,-4.92824 -14.5,-7.64929 C 539.58713,165.30151 516.01048,154 513.67496,154 512.75373,154 512,153.55 512,153 c 0,-0.55 -0.60586,-1 -1.34636,-1 -0.7405,0 -2.653,-0.63184 -4.25,-1.40409 -8.64346,-4.17964 -22.5188,-9.81005 -27.90364,-11.32289 -1.1,-0.30903 -2.45,-0.8781 -3,-1.2646 -0.55,-0.38649 -3.925,-1.65269 -7.5,-2.81378 -13.94012,-4.52748 -15.61234,-5.07903 -19,-6.26669 -1.925,-0.67487 -4.4,-1.57585 -5.5,-2.00217 -1.1,-0.42632 -3.125,-0.98233 -4.5,-1.23557 -1.375,-0.25324 -6.325,-1.58907 -11,-2.96851 -14.58124,-4.30245 -44.31205,-11.38429 -57.84843,-13.77942 -8.84476,-1.56499 -10.129,-3.28603 -6.85929,-9.19228 1.1418,-2.0625 2.45513,-3.75 2.91851,-3.75 0.46338,0 2.44548,-1.4625 4.40466,-3.25 1.95919,-1.7875 4.30969,-3.660094 5.22335,-4.161321 0.91366,-0.501226 2.02106,-1.513726 2.46089,-2.25 C 378.73952,85.602406 379.75202,85 380.54969,85 381.34736,85 382,84.55 382,84 c 0,-0.55 0.60748,-1 1.34996,-1 0.74248,0 3.10498,-1.248747 5.25,-2.774994 2.14502,-1.526246 5.92504,-3.597085 8.40004,-4.601865 2.475,-1.004779 5.175,-2.231654 6,-2.726389 C 405.82758,71.20111 415.24846,67 416.2233,67 c 0.53594,0 2.39245,-0.639508 4.12557,-1.42113 6.6732,-3.009552 20.31545,-7.124918 27.15113,-8.190498 1.1,-0.171474 4.925,-0.966225 8.5,-1.766113 24.69719,-5.525874 62.09246,-3.990127 85,3.490777 3.575,1.167486 8.525,2.77961 11,3.582498 4.76181,1.544728 5.85129,1.970813 13,5.084146 25.56089,11.132023 56,27.141881 56,29.453951 C 621,97.655134 621.72623,98 622.61385,98 624.62182,98 632,102.0751 632,103.18414 c 0,0.44872 0.44611,0.81586 0.99135,0.81586 0.54524,0 3.01124,1.54182 5.47999,3.42626 2.46876,1.88445 5.48374,3.7421 6.69996,4.12811 1.21622,0.38601 3.58773,1.99211 5.27001,3.56911 1.68228,1.577 3.62119,2.86935 4.30869,2.87189 0.6875,0.003 1.25,0.45463 1.25,1.00463 0,0.55 0.49754,1 1.10564,1 1.02176,0 4.92542,2.75921 9.14436,6.46348 0.9625,0.84509 2.0585,1.53652 2.43555,1.53652 0.37705,0 1.71018,0.96259 2.96251,2.1391 1.25233,1.1765 3.12949,2.639 4.17147,3.25 3.31291,1.94263 9.60384,6.3094 11.87484,8.24277 1.2069,1.02747 3.65824,2.99313 5.44742,4.36813 1.78918,1.375 4.25317,3.4 5.47554,4.5 3.51977,3.16741 5.63064,4.85154 9.38267,7.48584 1.925,1.35154 4.625,3.51763 6,4.81353 3.02326,2.84933 6.20068,4.20063 9.87727,4.20063 3.16325,0 10.64101,-3.36683 11.82253,-5.32304 0.44011,-0.72869 2.37325,-2.4166 4.29587,-3.75092 1.92262,-1.33432 4.08564,-3.21354 4.8067,-4.17604 0.72107,-0.9625 1.96052,-1.75 2.75433,-1.75 0.79382,0 1.4433,-0.43844 1.4433,-0.97432 0,-0.53588 1.2375,-1.64565 2.75,-2.46616 1.5125,-0.82051 4.55,-3.13885 6.75,-5.15187 2.2,-2.01302 6.925,-5.73356 10.5,-8.26786 3.575,-2.5343 6.95,-4.96482 7.5,-5.40117 5.74041,-4.55414 13.23293,-9.69065 14.16667,-9.71197 0.64166,-0.0147 1.31666,-0.40347 1.5,-0.86402 0.18333,-0.46055 3.63691,-3.04805 7.67463,-5.75 10.79726,-7.22528 12.5039,-8.3196 14.1587,-9.07868 0.825,-0.37843 1.725,-0.99794 2,-1.37667 0.275,-0.37874 2.43995,-1.67221 4.81101,-2.87439 2.37106,-1.202186 6.87106,-3.839686 10,-5.861116 8.70436,-5.623382 10.47342,-6.596229 28.18899,-15.501766 9.075,-4.56196 19.425,-9.316166 23,-10.564902 3.575,-1.248736 8.09543,-3.121527 10.0454,-4.161758 1.94996,-1.040231 5.32496,-2.315734 7.5,-2.834449 2.17503,-0.518716 6.6546,-1.712325 9.9546,-2.652465 11.70846,-3.335634 24.57045,-5.382894 38.72622,-6.1641 15.81444,-0.872744 31.55804,0.730707 55.77378,5.680439 5.4785,1.119813 15.313,4.240898 16,5.077777 0.275,0.33499 2.975,1.192688 6,1.905996 4.6701,1.101224 12.2663,4.281512 19.2364,8.053712 0.9551,0.516858 2.3051,0.949748 3,0.961978 0.695,0.01223 2.3886,0.902223 3.7636,1.977764 1.375,1.075541 3.0813,1.965534 3.7918,1.977764 0.7105,0.01223 2.2855,0.960423 3.5,2.107095 1.2145,1.146673 3.5582,2.791036 5.2082,3.654141 4.4743,2.340474 13.2251,8.98615 17.6207,13.38174 2.7957,2.795672 3.8793,4.72416 3.8793,6.90401 0,3.55754 -1.5628,4.36292 -10.5,5.4111 -8.7757,1.02923 -32.5505,6.70399 -55,13.1278 -4.95,1.41642 -10.125,2.80294 -11.5,3.08116 -1.375,0.27821 -3.4,0.89837 -4.5,1.37813 -1.1,0.47976 -5.825,2.07079 -10.5,3.53561 -9.8918,3.09942 -11.28329,3.59499 -28.25,10.06116 -2.3375,0.89085 -5.15,1.96254 -6.25,2.38154 -1.1,0.41901 -5.375,2.20233 -9.5,3.96294 -4.125,1.76061 -8.625,3.66163 -10,4.22449 -3.99719,1.63626 -10.00636,4.33244 -17,7.62752 -3.575,1.68437 -8.075,3.74024 -10,4.56859 -1.925,0.82836 -4.625,2.17239 -6,2.98674 -1.375,0.81435 -3.175,1.74847 -4,2.07583 -0.825,0.32737 -6.45,3.27553 -12.5,6.55147 -6.05,3.27595 -12.575,6.75387 -14.5,7.72872 -1.925,0.97485 -4.37508,2.56249 -5.44463,3.5281 -1.06954,0.96561 -3.43204,2.29351 -5.25,2.95089 C 863.48742,189.86392 862,190.76138 862,191.20089 862,191.6404 861.40985,192 860.68856,192 c -0.72129,0 -2.28412,0.90619 -3.47294,2.01375 -1.18883,1.10756 -4.08619,3.04249 -6.43857,4.29983 -4.74343,2.53536 -10.00718,5.82218 -10.77705,6.72948 C 839.22412,205.95744 824.02965,216 823.42207,216 c -0.75809,0 -8.85052,6.33902 -9.2554,7.25 -0.18334,0.4125 -0.81745,0.75 -1.40913,0.75 -1.02303,0 -10.81596,6.99 -13.54393,9.66738 -0.70751,0.6944 -2.62001,2.05033 -4.25,3.01319 C 793.33363,237.64342 792,238.78419 792,239.21561 792,239.64702 791.325,240 790.5,240 c -0.825,0 -1.5,0.45 -1.5,1 0,0.55 -0.525,1 -1.16667,1 -0.64166,0 -2.32916,1.0956 -3.75,2.43468 -7.32436,6.90288 -9.35401,8.68039 -13.70669,12.0039 -5.52514,4.21876 -17.68108,14.84556 -21.51828,18.81142 -1.46343,1.5125 -2.94786,2.75 -3.29873,2.75 -0.35088,0 -2.85271,2.25 -5.55963,5 -2.70692,2.75 -5.5018,5.01431 -6.21084,5.0318 -0.70904,0.0175 -2.16267,0.6925 -3.23029,1.5 -1.83836,1.39047 -8.83948,1.81619 -12.80887,0.77887 z m 1.17905,-170.13096 C 717.34379,119.49381 692.64584,102.08547 685.80864,96.8348 683.77839,95.27566 681.89901,94 681.63224,94 c -0.26677,0 -6.58882,-4.057672 -14.04901,-9.017049 -7.46018,-4.959378 -14.8058,-9.56865 -16.3236,-10.242828 -1.51779,-0.674178 -3.58447,-1.97224 -4.59261,-2.884582 -1.00813,-0.912342 -4.04563,-2.709306 -6.75,-3.993253 C 637.21266,66.578341 635,65.184075 635,64.763919 635,64.343764 634.5698,64 634.04401,64 c -0.5258,0 -3.3383,-1.430095 -6.25,-3.17799 -11.22595,-6.738932 -31.40288,-17.060609 -55.43287,-28.357145 -5.02637,-2.362906 -9.48839,-4.861737 -9.91558,-5.552958 -1.25341,-2.028058 6.24763,-7.578871 14.56008,-10.774536 C 594.64611,9.3556081 620.06407,4.8517828 652,2.8490704 707.74625,-0.64679437 787.12052,0.59079667 825.38093,5.5523985 838.03337,7.193164 864.46108,13.161249 869.65113,15.549798 871.38425,16.347409 873.19026,17 873.66448,17 c 0.47422,0 3.24603,1.605354 6.15958,3.567453 8.40435,5.659821 7.09785,7.441905 -11.32406,15.446145 -6.28402,2.73038 -22.25761,10.666091 -29.5,14.655661 -3.025,1.666362 -8.65,4.731871 -12.5,6.812241 -15.96716,8.627947 -18.14176,9.874574 -21.18328,12.143657 C 803.56592,70.931321 801.92441,72 801.66893,72 801.12557,72 789.90726,78.732642 782,83.804254 769.26471,91.972502 765.46378,94.474724 764.02312,95.638773 760.0054,98.88507 752.92479,104 752.44865,104 c -0.29373,0 -2.97062,1.8 -5.94865,4 -2.97803,2.2 -5.69343,4 -6.03422,4 -0.3408,0 -2.03391,1.41429 -3.76248,3.14286 -5.04758,5.04757 -12.7227,7.22254 -17.77425,5.03685 z"
         id="path1-0" /></g></g></svg>
